<?xml version="1.0" encoding="iso-8859-1"?>
<!-- Generator: Adobe Illustrator 19.0.0, SVG Export Plug-In . SVG Version: 6.00 Build 0)  -->
<svg version="1.1" id="Layer_1" xmlns="http://www.w3.org/2000/svg" xmlns:xlink="http://www.w3.org/1999/xlink" x="0px" y="0px"
	 viewBox="0 0 496 496" style="enable-background:new 0 0 496 496;" xml:space="preserve">
<path style="fill:#3A2819;" d="M288,299.2c0,7.2-5.6,12.8-12.8,12.8h-53.6c-7.2,0-12.8-5.6-12.8-12.8v-77.6
	c0-7.2,5.6-12.8,12.8-12.8h53.6c7.2,0,12.8,5.6,12.8,12.8V299.2z"/>
<path style="fill:#A09D93;" d="M496,465.6c0,10.4-8,22.4-18.4,22.4H18.4C8,488,0,476,0,465.6V272.8C0,262.4,8,256,18.4,256h459.2
	c10.4,0,18.4,6.4,18.4,16.8V465.6z"/>
<path style="fill:#D8D6CA;" d="M496,440.8c0,10.4-8,15.2-18.4,15.2H18.4C8,456,0,451.2,0,440.8V248c0-10.4,8-16,18.4-16h459.2
	c10.4,0,18.4,5.6,18.4,16V440.8z"/>
<path style="fill:#C1BDAE;" d="M16,232h461.6c10.4,0,18.4,5.6,18.4,16v192.8c0,10.4-8,15.2-18.4,15.2"/>
<path style="fill:#F9A12C;" d="M280,334.4c0,0.8-0.8,1.6-1.6,1.6h-60.8c-0.8,0-1.6-0.8-1.6-1.6v-12.8c0-0.8,0.8-1.6,1.6-1.6h60.8
	c0.8,0,1.6,0.8,1.6,1.6V334.4z"/>
<path style="fill:#E88813;" d="M224,320L224,320h56l0,0v14.4c0,0.8-0.8,1.6-1.6,1.6"/>
<path style="fill:#F9A12C;" d="M280,374.4c0,0.8-0.8,1.6-1.6,1.6h-60.8c-0.8,0-1.6-0.8-1.6-1.6v-12.8c0-0.8,0.8-1.6,1.6-1.6h60.8
	c0.8,0,1.6,0.8,1.6,1.6V374.4z"/>
<path style="fill:#E88813;" d="M224,360L224,360h56l0,0v14.4c0,0.8-0.8,1.6-1.6,1.6"/>
<g>
	<path style="fill:#3A2819;" d="M184,408.8c0,7.2-4.8,15.2-12,15.2H42.4c-7.2,0-10.4-8-10.4-15.2V280c0-7.2,3.2-16,10.4-16h128.8
		c7.2,0,12,8,12,16v128.8H184z"/>
	<path style="fill:#3A2819;" d="M464,410.4c0,7.2-6.4,13.6-13.6,13.6H317.6c-7.2,0-13.6-6.4-13.6-13.6V277.6
		c0-7.2,6.4-13.6,13.6-13.6h132.8c7.2,0,13.6,6.4,13.6,13.6L464,410.4L464,410.4z"/>
</g>
<path style="fill:#EA1F0A;" d="M152,320h-16v-20.8c0-5.6-5.6-11.2-10.4-11.2h-36c-5.6,0-9.6,5.6-9.6,11.2V320H62.4
	c-5.6,0-6.4,0.8-6.4,6.4v36c0,5.6,0.8,13.6,6.4,13.6H80v13.6c0,5.6,4,10.4,9.6,10.4h36c5.6,0,10.4-5.6,10.4-10.4V376h16
	c5.6,0,8-8,8-13.6v-36C160,320.8,157.6,320,152,320z"/>
<path style="fill:#BC0400;" d="M80,376v13.6c0,5.6,4,10.4,9.6,10.4h36c5.6,0,10.4-5.6,10.4-10.4V376h16c5.6,0,8-8,8-13.6v-36
	c0-5.6-2.4-6.4-8-6.4h-16"/>
<path style="fill:#329908;" d="M388.8,319.2c0,16.8-13.6,29.6-29.6,29.6c-16.8,0-29.6-13.6-29.6-29.6c0-16.8,13.6-29.6,29.6-29.6
	C375.2,289.6,388.8,303.2,388.8,319.2z"/>
<path style="fill:#236D00;" d="M380,298.4c12,12,12,30.4,0,42.4s-30.4,12-42.4,0"/>
<path style="fill:#07BED6;" d="M444.8,369.6c0,16.8-13.6,29.6-29.6,29.6c-16.8,0-29.6-13.6-29.6-29.6c0-16.8,13.6-29.6,29.6-29.6
	C431.2,339.2,444.8,352.8,444.8,369.6z"/>
<path style="fill:#00A1AD;" d="M436,348c12,12,12,30.4,0,42.4s-30.4,12-42.4,0"/>
<path style="fill:#D8D6CA;" d="M474.4,248c0,3.2-2.4,8-5.6,8H27.2c-3.2,0-5.6-4.8-5.6-8l0,0c0-3.2,2.4-8,5.6-8h441.6
	C472,240,474.4,244.8,474.4,248L474.4,248z"/>
<path style="fill:#4C5254;" d="M256,192h-24v-55.2c0-14.4-9.6-25.6-23.2-25.6s-24,8.8-24,24.8h-24c0-24,20-49.6,47.2-49.6
	s47.2,22.4,47.2,49.6v56H256z"/>
<path style="fill:#2F423F;" d="M172.8,124c-6.4,0-12,5.6-12,12c0,14.4-10.4,25.6-24.8,25.6s-24-11.2-24-25.6V8H88v128
	c0,27.2,20.8,49.6,48.8,49.6s48.8-22.4,48.8-49.6C185.6,129.6,179.2,124,172.8,124z"/>
<g>
</g>
<g>
</g>
<g>
</g>
<g>
</g>
<g>
</g>
<g>
</g>
<g>
</g>
<g>
</g>
<g>
</g>
<g>
</g>
<g>
</g>
<g>
</g>
<g>
</g>
<g>
</g>
<g>
</g>
</svg>
