<?xml version="1.0" encoding="iso-8859-1"?>
<!-- Generator: Adobe Illustrator 19.0.0, SVG Export Plug-In . SVG Version: 6.00 Build 0)  -->
<svg version="1.1" id="Layer_1" xmlns="http://www.w3.org/2000/svg" xmlns:xlink="http://www.w3.org/1999/xlink" x="0px" y="0px"
	 viewBox="0 0 495.2 495.2" style="enable-background:new 0 0 495.2 495.2;" xml:space="preserve">
<polygon style="fill:#189B2A;" points="380.4,184.8 321.2,193.6 295.6,124 330.8,65.6 381.2,40 316.4,43.2 243.6,115.2 253.2,41.6 
	308.4,0 222,20 201.2,100.8 171.6,46.4 194.8,6.4 142,45.6 163.6,118.4 119.6,95.2 124.4,68.8 93.2,108.8 145.2,168 202,309.6 
	198,464.8 196.4,471.2 308.4,471.2 283.6,292.8 334,245.6 406,211.2 407.6,144.8 "/>
<g>
	<polygon style="fill:#2ECC3D;" points="334.8,192 284.4,203.2 388.4,195.2 407.6,167.2 407.6,144.8 380.4,184.8 	"/>
	<polygon style="fill:#2ECC3D;" points="260.4,98.4 258,115.2 330.8,43.2 379.6,40.8 381.2,40 316.4,43.2 	"/>
	<polygon style="fill:#2ECC3D;" points="239.6,308 160.4,168 99.6,107.2 110.8,92 124.4,68.8 93.2,108.8 145.2,168 202,309.6 
		198,464.8 196.4,471.2 198.8,471.2 205.2,455.2 	"/>
	<polygon style="fill:#2ECC3D;" points="178,118.4 156.4,45.6 180.4,20.8 194.8,6.4 142,45.6 160.4,108.8 	"/>
	<polygon style="fill:#2ECC3D;" points="206,127.2 237.2,20 302,4.8 308.4,0 222,20 206,82.4 	"/>
	<circle style="fill:#2ECC3D;" cx="80.4" cy="186.4" r="15.2"/>
	<circle style="fill:#2ECC3D;" cx="124.4" cy="208" r="4.8"/>
	<circle style="fill:#2ECC3D;" cx="368.4" cy="294.4" r="4.8"/>
	<circle style="fill:#2ECC3D;" cx="425.2" cy="271.2" r="5.6"/>
</g>
<g>
	<circle style="fill:#189B2A;" cx="378" cy="114.4" r="13.6"/>
	<circle style="fill:#189B2A;" cx="145.2" cy="280" r="6.4"/>
	<circle style="fill:#189B2A;" cx="94.8" cy="155.2" r="4.8"/>
	<circle style="fill:#189B2A;" cx="104.4" cy="257.6" r="15.2"/>
	<circle style="fill:#189B2A;" cx="327.6" cy="300" r="8"/>
	<circle style="fill:#189B2A;" cx="322" cy="115.2" r="6.4"/>
	<circle style="fill:#189B2A;" cx="349.2" cy="148.8" r="7.2"/>
	<circle style="fill:#189B2A;" cx="351.6" cy="88.8" r="4"/>
	<circle style="fill:#189B2A;" cx="375.6" cy="352" r="19.2"/>
</g>
<g>
	<polygon style="fill:#2ECC3D;" points="268.4,156.8 191.6,164.8 262.8,163.2 	"/>
	<polygon style="fill:#2ECC3D;" points="274.8,151.2 212.4,196.8 273.2,160 	"/>
</g>
<path style="fill:#A0207F;" d="M451.6,479.2c0,8.8-7.2,16-16,16h-376c-8.8,0-16-7.2-16-16l0,0c0-8.8,7.2-16,16-16h376
	C444.4,463.2,451.6,470.4,451.6,479.2L451.6,479.2z"/>
<g>
	<path style="fill:#700E5B;" d="M451.6,480L451.6,480c0,8.8-7.2,15.2-16.8,15.2H60.4c-8.8,0-16.8-7.2-16.8-16l0,0"/>
	<polygon style="fill:#700E5B;" points="166,474.4 110,384 178,434.4 174,400 196.4,434.4 203.6,426.4 215.6,464.8 239.6,452 
		238.8,484 189.2,492.8 114,456 	"/>
	<polygon style="fill:#700E5B;" points="242.8,484.8 260.4,431.2 272.4,457.6 293.2,439.2 298,459.2 346.8,400.8 341.2,442.4 
		433.2,368 378.8,454.4 412.4,440 399.6,468 430,461.6 405.2,488 	"/>
	<polygon style="fill:#700E5B;" points="110.8,429.6 44.4,366.4 50.8,420.8 	"/>
	<polygon style="fill:#700E5B;" points="155.6,360.8 127.6,322.4 155.6,334.4 	"/>
	<polygon style="fill:#700E5B;" points="363.6,403.2 369.2,384 379.6,397.6 	"/>
</g>
<g>
</g>
<g>
</g>
<g>
</g>
<g>
</g>
<g>
</g>
<g>
</g>
<g>
</g>
<g>
</g>
<g>
</g>
<g>
</g>
<g>
</g>
<g>
</g>
<g>
</g>
<g>
</g>
<g>
</g>
</svg>
