<?xml version="1.0" encoding="iso-8859-1"?>
<!-- Generator: Adobe Illustrator 19.0.0, SVG Export Plug-In . SVG Version: 6.00 Build 0)  -->
<svg version="1.1" id="Layer_1" xmlns="http://www.w3.org/2000/svg" xmlns:xlink="http://www.w3.org/1999/xlink" x="0px" y="0px"
	 viewBox="0 0 512.002 512.002" style="enable-background:new 0 0 512.002 512.002;" xml:space="preserve">
<path style="fill:#E6E6E6;" d="M201.261,219.045c14.971,0,27.151-12.18,27.151-27.152c0-14.972-12.18-27.152-27.151-27.152
	c-14.973,0-27.153,12.18-27.153,27.152C174.108,206.865,186.288,219.045,201.261,219.045z M197.138,187.766
	c1.086-1.085,2.59-1.703,4.13-1.703c1.527,0,3.032,0.618,4.116,1.703c1.085,1.085,1.704,2.589,1.704,4.128
	c0,1.539-0.619,3.032-1.704,4.117c-1.085,1.096-2.589,1.714-4.116,1.714c-1.539,0-3.044-0.618-4.13-1.714
	c-1.085-1.085-1.702-2.577-1.702-4.117C195.436,190.355,196.053,188.85,197.138,187.766z"/>
<rect x="226.83" y="267.194" style="fill:#808080;" width="15.173" height="17.668"/>
<path style="fill:#333333;" d="M214.264,267.196c-2.597,0-4.712,2.114-4.712,4.714v37.565c0,2.598,2.114,4.713,4.712,4.713h44.073
	v-23.495c0-3.22,2.611-5.831,5.831-5.831H291c3.22,0,5.831,2.611,5.831,5.831v23.495h0.904c2.6,0,4.715-2.114,4.715-4.713V271.91
	c0-2.6-2.116-4.714-4.715-4.714h-44.071v23.496c0,3.22-2.611,5.831-5.831,5.831H221c-3.221,0-5.831-2.611-5.831-5.831v-23.496
	H214.264z"/>
<rect x="270.003" y="296.525" style="fill:#808080;" width="15.173" height="17.668"/>
<path style="fill:#81AF31;" d="M310.741,164.741c-10.544,0-19.696,6.046-24.191,14.848h48.382
	C330.436,170.787,321.284,164.741,310.741,164.741z"/>
<path style="fill:#C43333;" d="M310.741,219.045c14.971,0,27.15-12.18,27.15-27.152c0-0.215-0.012-0.428-0.016-0.641h-21.368
	c0.026,0.215,0.064,0.426,0.064,0.643c0,1.528-0.617,3.032-1.702,4.117c-1.096,1.096-2.59,1.714-4.13,1.714
	c-1.539,0-3.032-0.618-4.116-1.714c-1.085-1.085-1.716-2.577-1.716-4.117c0-0.217,0.041-0.428,0.066-0.643h-21.369
	c-0.005,0.213-0.016,0.426-0.016,0.641C283.59,206.864,295.77,219.045,310.741,219.045z"/>
<g>
	<path style="fill:#81AF31;" d="M208.473,81.074c-39.06,10.121-58.809,32.086-63.369,37.752v10.762
		C160.962,108.1,186.603,91.923,208.473,81.074z"/>
	<path style="fill:#81AF31;" d="M234.723,381.912c-14.209,0-26.64-1.606-37.28-4.755c7.823,13.268,31.461,23.215,58.556,23.215
		c27.1,0,50.754-9.948,58.575-23.22c-10.643,3.152-23.08,4.761-37.295,4.761h-42.557V381.912z"/>
</g>
<g>
	<path style="fill:#FFAA2A;" d="M317.696,496.855c-0.669,0.248-1.355,0.366-2.029,0.366c-2.369,0-4.594-1.453-5.467-3.803
		c-1.122-3.018,0.416-6.375,3.435-7.497l5.494-2.04l-6.287-15.612l-16.011,5.208v10.126c0,3.22-2.611,5.831-5.831,5.831
		c-3.22,0-5.831-2.611-5.831-5.831v-6.331l-50.556,16.446l3.376,6.62h87.767l-2.267-5.634L317.696,496.855z"/>
	<path style="fill:#FFAA2A;" d="M111.183,393.911l-1.1-11.799c-0.299-3.206,2.058-6.048,5.264-6.348
		c3.207-0.294,6.05,2.058,6.348,5.264l0.454,4.862l15.079-11.029l-17.275-22.96c-7.053,6.01-14.283,13.178-21.11,21.631l8.288,23.34
		L111.183,393.911z"/>
	<path style="fill:#FFAA2A;" d="M432.558,446.172c3.31,5.018,6.211,9.418,6.489,9.838c1.774,2.688,1.032,6.305-1.657,8.078
		c-0.989,0.652-2.104,0.964-3.205,0.964c-1.894,0-3.753-0.921-4.874-2.622c-1.278-1.937-2.822-4.278-4.447-6.743l-5.993,7.414v15.01
		l8.884-0.336c3.216-0.133,5.924,2.388,6.047,5.607c0.121,3.218-2.39,5.926-5.608,6.047l-9.324,0.352v10.553h28.414
		c-3.578-28.077-6.28-48.12-8.252-62.176L432.558,446.172z"/>
</g>
<path style="fill:#754C24;" d="M414.243,429.064c2.679-1.789,6.299-1.066,8.088,1.612c0.153,0.227,1.556,2.353,3.488,5.283
	l10.947-13.542c-1.167-7.86-1.824-11.826-2.067-13.244c-20.792-48.358-60.667-72.04-77.488-80.225
	c0.024,2.727-0.458,17.847-13.371,31.341c-4.225,4.417-9.277,8.155-15.127,11.225c-3.095,23.007-33.909,40.518-72.715,40.518
	c-38.804,0-69.617-17.511-72.713-40.518c-5.851-3.069-10.904-6.811-15.129-11.226c-12.91-13.493-13.392-28.612-13.368-31.34
	c-6.163,2.998-15.419,8.083-25.705,15.699l5.171,6.871l6.754-8.099c2.064-2.474,5.741-2.806,8.214-0.744
	c2.474,2.062,2.806,5.739,0.745,8.213l-8.509,10.203l8.642,11.484c0.939,1.247,1.338,2.818,1.108,4.361
	c-0.227,1.543-1.066,2.931-2.325,3.852l-25.473,18.63l1.226,13.135c0.299,3.206-2.058,6.048-5.264,6.348
	c-0.184,0.018-0.367,0.026-0.549,0.026c-2.977,0-5.516-2.267-5.8-5.29l-0.578-6.199l-4.747,3.472
	c-1.01,0.739-2.218,1.124-3.442,1.124c-0.576,0-1.155-0.085-1.718-0.259c-1.761-0.542-3.162-1.886-3.776-3.621l-8.264-23.264
	c-4.87,7.299-9.364,15.363-13.198,24.283c-0.646,3.78-4.24,25.654-12.588,91.165h74.899v-59.848l-10.777-21.02
	c-1.469-2.865-0.337-6.38,2.528-7.849c2.864-1.469,6.38-0.337,7.849,2.528l11.42,22.274c0.421,0.823,0.643,1.735,0.643,2.66v61.256
	h73.625l-3.775-7.403c-0.776-1.52-0.847-3.303-0.194-4.878c0.652-1.577,1.963-2.788,3.584-3.316l60.657-19.731v-9.471
	c0-3.22,2.611-5.831,5.831-5.831s5.831,2.611,5.831,5.831v5.677l17.582-5.719c2.917-0.946,6.068,0.524,7.213,3.367l8.439,20.957
	l4.528-1.682c3.018-1.122,6.376,0.416,7.497,3.436c1.122,3.018-0.418,6.375-3.435,7.496l-4.232,1.571l3.905,9.696h22.4v-61.256
	c0-0.926,0.22-1.837,0.643-2.66l11.42-22.274c1.468-2.865,4.982-3.999,7.849-2.528c2.865,1.469,3.998,4.983,2.528,7.849
	l-10.777,21.02v59.848h34.821v-10.112l-10.381,0.393c-0.076,0.002-0.149,0.003-0.223,0.003c-3.12,0-5.705-2.468-5.824-5.611
	c-0.12-3.218,2.39-5.926,5.608-6.048l10.82-0.409v-17.514c0-1.334,0.458-2.628,1.297-3.665l9.619-11.9
	c-2.993-4.538-5.31-8.047-5.494-8.325C410.844,434.473,411.566,430.852,414.243,429.064z"/>
<g>
	<path style="fill:#81AF31;" d="M166.455,262.242v66.552c0,0.086-0.001,0.171-0.006,0.258c-0.007,0.226-0.062,3.178,1.092,7.4
		l12.104-13.251c2.172-2.377,5.86-2.545,8.238-0.373c2.378,2.172,2.546,5.86,0.372,8.238l-15.306,16.756
		c1.088,1.536,2.352,3.085,3.833,4.611c11.475,11.822,30.968,17.816,57.94,17.816h42.556c26.97,0,46.464-5.994,57.939-17.816
		c10.58-10.901,10.348-22.916,10.332-23.422c-0.001-0.058-0.003-0.159-0.003-0.217v-38.545l-15.599-15.295
		c-2.301-2.254-2.337-5.947-0.082-8.246c2.254-2.299,5.947-2.336,8.245-0.082l7.436,7.29v-11.674c0-3.22,2.611-5.831,5.831-5.831
		c4.912,0,8.929-1.684,12.279-5.148c9.912-10.248,11.391-33.335,11.123-41.368c-0.002-0.064-0.003-0.129-0.003-0.194
		c0-26.02-4.294-32.583-5.037-33.523c-1.738-1.036-2.843-2.925-2.843-5.008v-31.277c-9.547-4.72-40.311-18.685-71.733-19.583
		c-2.69-0.077-4.979-1.986-5.537-4.619c-0.559-2.633,0.758-5.306,3.186-6.469c1.052-0.505,25.29-11.697,73.954-3.333
		c-2.068-34.771-31.002-62.43-66.284-62.43h-88.966c-33.699,0-61.597,25.237-65.836,57.8
		c15.849-14.614,49.239-37.007,105.065-37.007c2.886,0,5.337,2.112,5.765,4.966c0.429,2.854-1.296,5.592-4.055,6.44
		c-0.891,0.274-88.795,27.8-107.352,77.821v17.69c0,2.083-1.107,3.972-2.843,5.008c-0.744,0.94-5.037,7.504-5.037,33.523
		c0,0.065-0.001,0.129-0.003,0.195c-0.254,8.046,1.249,31.176,11.134,41.378c3.349,3.457,7.362,5.137,12.271,5.137
		C163.843,256.411,166.455,259.022,166.455,262.242z M269.707,345.994h-27.416c-3.22,0-5.831-2.611-5.831-5.831
		s2.611-5.831,5.831-5.831h27.416c3.22,0,5.831,2.611,5.831,5.831S272.926,345.994,269.707,345.994z M310.741,153.079
		c21.401,0,38.812,17.412,38.812,38.814c0,21.403-17.412,38.814-38.812,38.814c-21.403,0-38.813-17.412-38.813-38.814
		C271.928,170.491,289.339,153.079,310.741,153.079z M263.352,219.539c2.947-1.3,6.39,0.033,7.69,2.977l7.997,18.103
		c1.302,2.946-0.031,6.39-2.977,7.69c-0.766,0.338-1.566,0.499-2.353,0.499c-2.239,0-4.375-1.297-5.337-3.477l-7.997-18.103
		C259.074,224.283,260.408,220.84,263.352,219.539z M297.734,255.534c9.03,0,16.377,7.346,16.377,16.376v37.565
		c0,9.029-7.347,16.375-16.377,16.375h-83.47c-9.028,0-16.374-7.346-16.374-16.375V271.91c0-9.03,7.346-16.376,16.374-16.376
		H297.734z M248.65,219.54c2.946,1.301,4.279,4.744,2.977,7.69l-8,18.103c-0.962,2.18-3.099,3.475-5.337,3.475
		c-0.787,0-1.586-0.161-2.355-0.499c-2.945-1.301-4.278-4.744-2.976-7.69l8-18.103C242.261,219.57,245.704,218.237,248.65,219.54z
		 M201.261,153.079c21.401,0,38.813,17.412,38.813,38.814c0,21.403-17.412,38.814-38.813,38.814
		c-21.404,0-38.816-17.412-38.816-38.814C162.446,170.491,179.859,153.079,201.261,153.079z"/>
	<path style="fill:#81AF31;" d="M366.896,126.951v-9.202c-13.377-2.42-24.811-3.272-34.275-3.278
		C347.059,118.38,359.231,123.419,366.896,126.951z"/>
</g>
<path d="M269.707,334.331h-27.416c-3.22,0-5.831,2.611-5.831,5.831s2.611,5.831,5.831,5.831h27.416c3.22,0,5.831-2.611,5.831-5.831
	C275.538,336.942,272.926,334.331,269.707,334.331z"/>
<path d="M201.261,230.707c21.401,0,38.813-17.412,38.813-38.814s-17.412-38.814-38.813-38.814
	c-21.404,0-38.816,17.412-38.816,38.814C162.446,213.296,179.859,230.707,201.261,230.707z M201.261,164.741
	c14.971,0,27.151,12.18,27.151,27.152c0,14.972-12.18,27.152-27.151,27.152c-14.973,0-27.153-12.18-27.153-27.152
	C174.108,176.921,186.288,164.741,201.261,164.741z"/>
<path d="M201.267,197.725c1.527,0,3.032-0.618,4.116-1.714c1.085-1.085,1.704-2.577,1.704-4.117s-0.619-3.044-1.704-4.128
	c-1.085-1.085-2.589-1.703-4.116-1.703c-1.539,0-3.044,0.618-4.13,1.703c-1.085,1.085-1.702,2.589-1.702,4.128
	c0,1.539,0.617,3.032,1.702,4.117C198.223,197.107,199.728,197.725,201.267,197.725z"/>
<path d="M310.741,230.707c21.401,0,38.812-17.412,38.812-38.814s-17.412-38.814-38.812-38.814
	c-21.403,0-38.813,17.412-38.813,38.814C271.928,213.296,289.339,230.707,310.741,230.707z M310.741,164.741
	c10.543,0,19.695,6.046,24.191,14.848H286.55C291.046,170.787,300.197,164.741,310.741,164.741z M283.606,191.252h21.369
	c-0.024,0.215-0.066,0.426-0.066,0.643c0,1.539,0.631,3.032,1.716,4.117c1.085,1.096,2.576,1.714,4.116,1.714
	c1.539,0,3.033-0.618,4.13-1.714c1.085-1.085,1.702-2.589,1.702-4.117c0-0.217-0.038-0.428-0.064-0.643h21.368
	c0.005,0.213,0.016,0.426,0.016,0.641c0,14.971-12.179,27.152-27.15,27.152c-14.971,0-27.151-12.18-27.151-27.152
	C283.59,191.677,283.602,191.465,283.606,191.252z"/>
<path d="M235.936,248.309c0.767,0.338,1.567,0.499,2.355,0.499c2.238,0,4.375-1.297,5.337-3.475l8-18.103
	c1.301-2.946-0.03-6.389-2.977-7.69c-2.946-1.303-6.389,0.031-7.69,2.976l-8,18.103C231.658,243.565,232.99,247.008,235.936,248.309
	z"/>
<path d="M268.373,245.333c0.962,2.18,3.098,3.477,5.337,3.477c0.787,0,1.586-0.161,2.353-0.499c2.945-1.301,4.279-4.744,2.977-7.69
	l-7.997-18.103c-1.3-2.945-4.742-4.278-7.69-2.977c-2.945,1.301-4.279,4.744-2.977,7.69L268.373,245.333z"/>
<path d="M197.89,271.91v37.565c0,9.029,7.346,16.375,16.374,16.375h83.47c9.03,0,16.377-7.346,16.377-16.375V271.91
	c0-9.03-7.347-16.376-16.377-16.376h-83.47C205.235,255.534,197.89,262.88,197.89,271.91z M285.168,314.188h-15.17v-17.664h15.17
	V314.188z M226.831,267.196h15.171v17.665h-15.171V267.196z M221,296.523h26.834c3.22,0,5.831-2.611,5.831-5.831v-23.496h44.069
	c2.6,0,4.715,2.114,4.715,4.714v37.565c0,2.598-2.116,4.713-4.715,4.713h-0.904v-23.495c0-3.22-2.611-5.831-5.831-5.831h-26.833
	c-3.22,0-5.831,2.611-5.831,5.831v23.495h-44.073c-2.597,0-4.712-2.114-4.712-4.713V271.91c0-2.6,2.114-4.714,4.712-4.714h0.905
	v23.496C215.169,293.912,217.779,296.523,221,296.523z"/>
<path d="M446.064,406.457c-0.077-0.423-0.202-0.836-0.37-1.233c-24.828-58.454-74.208-83.076-88.486-89.154v-48.537
	c5.661-1.089,10.631-3.821,14.831-8.162c15.069-15.577,14.469-47.317,14.401-49.759c-0.009-25.103-3.725-36.394-7.881-41.165V114.62
	c6.155-2.355,10.542-8.318,10.542-15.293V80.555c0-3.22-2.611-5.831-5.831-5.831c-3.22,0-5.831,2.611-5.831,5.831v16.218
	c-2.903-17.105-11.384-32.328-23.506-43.735c3.415-3.001,5.58-7.386,5.58-12.279V21.985c0-3.22-2.611-5.831-5.831-5.831
	c-3.22,0-5.831,2.611-5.831,5.831v18.774c0,2.188-1.504,4.015-3.528,4.544c-10.846-7.387-23.642-12.096-37.441-13.222V5.831
	c0-3.22-2.61-5.831-5.831-5.831c-3.221,0-5.831,2.611-5.831,5.831v25.966h-78.431V5.831c0-3.22-2.61-5.831-5.831-5.831
	s-5.831,2.611-5.831,5.831v26.249c-13.4,1.092-25.851,5.572-36.491,12.595c-2.489-0.125-4.481-2.17-4.481-4.691V21.211
	c0-3.22-2.611-5.831-5.831-5.831s-5.831,2.611-5.831,5.831v18.774c0,5.095,2.346,9.642,6.007,12.644
	c-12.355,11.452-20.999,26.838-23.936,44.15V79.782c0-3.22-2.611-5.831-5.831-5.831c-3.22,0-5.831,2.611-5.831,5.831v18.774
	c0,6.973,4.389,12.929,10.543,15.285v54.607c-4.155,4.772-7.872,16.062-7.881,41.165c-0.071,2.439-0.672,34.18,14.398,49.759
	c4.201,4.342,9.172,7.073,14.834,8.162v48.537c-14.278,6.078-63.661,30.701-88.489,89.154c-0.168,0.395-0.292,0.809-0.369,1.233
	c-0.146,0.798-3.683,20.452-13.626,98.98c-0.211,1.661,0.303,3.332,1.41,4.588c1.107,1.256,2.7,1.976,4.375,1.976h395.811
	c1.674,0,3.268-0.72,4.375-1.976s1.621-2.927,1.41-4.588C449.747,426.91,446.208,407.255,446.064,406.457z M145.104,118.826
	c4.56-5.666,24.309-27.631,63.369-37.752c-21.87,10.849-47.511,27.026-63.369,48.514
	C145.104,129.588,145.104,118.826,145.104,118.826z M148.353,251.274c-9.885-10.202-11.388-33.332-11.134-41.378
	c0.002-0.065,0.003-0.129,0.003-0.195c0-26.02,4.294-32.583,5.037-33.523c1.737-1.036,2.843-2.925,2.843-5.008v-17.69
	c18.557-50.021,106.461-77.548,107.352-77.821c2.758-0.848,4.484-3.586,4.055-6.44c-0.428-2.854-2.879-4.966-5.765-4.966
	c-55.826,0-89.216,22.393-105.065,37.007c4.239-32.563,32.137-57.8,65.836-57.8h88.966c35.282,0,64.216,27.658,66.284,62.43
	c-48.665-8.364-72.902,2.828-73.954,3.333c-2.428,1.163-3.745,3.836-3.186,6.469s2.847,4.542,5.537,4.619
	c31.422,0.898,62.187,14.865,71.733,19.583v31.277c0,2.083,1.106,3.972,2.843,5.008c0.744,0.94,5.037,7.503,5.037,33.523
	c0,0.064,0.001,0.129,0.003,0.194c0.266,8.032-1.212,31.121-11.123,41.368c-3.351,3.464-7.367,5.148-12.279,5.148
	c-3.22,0-5.831,2.611-5.831,5.831v11.674l-7.436-7.29c-2.3-2.255-5.992-2.217-8.245,0.082c-2.255,2.3-2.218,5.992,0.082,8.246
	l15.599,15.295v38.545c0,0.058,0.002,0.159,0.004,0.217c0.016,0.506,0.248,12.522-10.332,23.422
	c-11.476,11.822-30.969,17.816-57.939,17.816h-42.556c-26.972,0-46.466-5.994-57.94-17.816c-1.481-1.527-2.745-3.075-3.833-4.611
	l15.306-16.756c2.173-2.378,2.006-6.067-0.372-8.238c-2.377-2.172-6.066-2.004-8.238,0.373l-12.104,13.251
	c-1.152-4.222-1.097-7.173-1.092-7.4c0.005-0.086,0.006-0.171,0.006-0.258v-66.552c0-3.22-2.611-5.831-5.831-5.831
	C155.717,256.411,151.703,254.731,148.353,251.274z M366.896,117.749v9.202c-7.663-3.531-19.836-8.571-34.275-12.48
	C342.083,114.478,353.519,115.33,366.896,117.749z M314.573,377.152c-7.82,13.272-31.474,23.22-58.575,23.22
	c-27.095,0-50.733-9.947-58.556-23.215c10.639,3.149,23.07,4.755,37.28,4.755h42.556
	C291.493,381.912,303.93,380.304,314.573,377.152z M119.952,351.905l17.275,22.96l-15.079,11.029l-0.454-4.862
	c-0.299-3.207-3.141-5.558-6.348-5.264c-3.206,0.3-5.563,3.141-5.264,6.348l1.1,11.799l-4.053,2.963l-8.288-23.34
	C105.668,365.084,112.899,357.915,119.952,351.905z M237.987,500.338l-3.376-6.619l50.556-16.446v6.331
	c0,3.22,2.611,5.831,5.831,5.831c3.22,0,5.831-2.611,5.831-5.831v-10.126l16.011-5.208l6.287,15.612l-5.494,2.04
	c-3.018,1.121-4.556,4.477-3.435,7.496c0.872,2.35,3.098,3.803,5.467,3.803c0.674,0,1.36-0.118,2.029-0.366l5.79-2.151l2.267,5.634
	L237.987,500.338L237.987,500.338z M408.507,457.376c-0.84,1.038-1.297,2.331-1.297,3.665v17.514l-10.82,0.409
	c-3.219,0.121-5.729,2.829-5.608,6.048c0.12,3.143,2.704,5.611,5.824,5.611c0.073,0,0.148-0.001,0.223-0.003l10.381-0.393v10.112
	h-34.821v-59.848l10.777-21.02c1.469-2.865,0.337-6.38-2.528-7.849c-2.867-1.471-6.382-0.337-7.849,2.528l-11.42,22.274
	c-0.421,0.823-0.643,1.735-0.643,2.66v61.256h-22.4l-3.905-9.696l4.232-1.571c3.018-1.121,4.556-4.477,3.435-7.497
	c-1.121-3.019-4.478-4.558-7.496-3.436l-4.528,1.682l-8.439-20.957c-1.145-2.844-4.296-4.313-7.213-3.367l-17.582,5.719v-5.677
	c0-3.22-2.611-5.831-5.831-5.831c-3.22,0-5.831,2.611-5.831,5.831v9.471l-60.657,19.731c-1.622,0.528-2.932,1.74-3.584,3.316
	c-0.653,1.577-0.582,3.359,0.194,4.878l3.775,7.403H151.27v-61.256c0-0.926-0.22-1.837-0.643-2.66l-11.42-22.274
	c-1.469-2.865-4.984-3.998-7.849-2.528c-2.865,1.469-3.998,4.983-2.528,7.849l10.777,21.02v59.848H64.712
	c8.348-65.512,11.942-87.386,12.588-91.165c3.835-8.92,8.329-16.984,13.198-24.283l8.264,23.264
	c0.615,1.735,2.016,3.079,3.776,3.621c0.562,0.173,1.142,0.259,1.718,0.259c1.223,0,2.432-0.385,3.442-1.124l4.747-3.472
	l0.578,6.198c0.282,3.023,2.822,5.29,5.8,5.29c0.181,0,0.365-0.008,0.549-0.026c3.206-0.3,5.562-3.141,5.264-6.348l-1.226-13.135
	l25.473-18.63c1.26-0.92,2.098-2.308,2.325-3.852c0.23-1.543-0.17-3.114-1.108-4.361l-8.642-11.484l8.509-10.203
	c2.062-2.474,1.728-6.151-0.745-8.213c-2.472-2.062-6.15-1.73-8.214,0.744l-6.754,8.099l-5.171-6.871
	c10.286-7.615,19.541-12.7,25.705-15.699c-0.023,2.728,0.458,17.847,13.368,31.34c4.225,4.416,9.278,8.157,15.129,11.226
	c3.095,23.007,33.908,40.518,72.713,40.518s69.619-17.511,72.715-40.518c5.85-3.069,10.902-6.81,15.127-11.225
	c12.912-13.494,13.394-28.615,13.371-31.341c16.822,8.183,56.696,31.867,77.488,80.225c0.243,1.418,0.899,5.383,2.067,13.244
	l-10.947,13.542c-1.932-2.928-3.335-5.056-3.488-5.283c-1.788-2.678-5.409-3.401-8.088-1.612c-2.678,1.788-3.4,5.409-1.612,8.088
	c0.184,0.278,2.502,3.787,5.494,8.325L408.507,457.376z M418.872,500.338v-10.553l9.324-0.352c3.219-0.121,5.728-2.829,5.608-6.047
	c-0.122-3.219-2.832-5.74-6.047-5.607l-8.884,0.336v-15.01l5.993-7.414c1.626,2.464,3.17,4.806,4.447,6.743
	c1.121,1.7,2.98,2.622,4.874,2.622c1.101,0,2.216-0.313,3.205-0.964c2.689-1.773,3.43-5.389,1.657-8.078
	c-0.278-0.421-3.179-4.821-6.489-9.838l6.476-8.011c1.972,14.057,4.674,34.099,8.252,62.176h-28.416V500.338z"/>
<g>
</g>
<g>
</g>
<g>
</g>
<g>
</g>
<g>
</g>
<g>
</g>
<g>
</g>
<g>
</g>
<g>
</g>
<g>
</g>
<g>
</g>
<g>
</g>
<g>
</g>
<g>
</g>
<g>
</g>
</svg>
