<?xml version="1.0" encoding="iso-8859-1"?>
<!-- Generator: Adobe Illustrator 19.0.0, SVG Export Plug-In . SVG Version: 6.00 Build 0)  -->
<svg version="1.1" id="Layer_1" xmlns="http://www.w3.org/2000/svg" xmlns:xlink="http://www.w3.org/1999/xlink" x="0px" y="0px"
	 viewBox="0 0 512 512" style="enable-background:new 0 0 512 512;" xml:space="preserve">
<path style="fill:#898890;" d="M145.856,454.531h47.45v15.673H15.673v26.122h480.653v-26.122H317.649v-15.673h48.495l53.905-53.467
	V164.571C420.049,73.822,346.227,0,255.478,0S90.906,73.822,90.906,164.571v235.457L145.856,454.531z"/>
<polygon style="fill:#91DC5A;" points="487.967,454.531 487.967,418.179 456.62,449.787 456.62,418.179 425.273,449.787 
	425.273,417.959 388.399,454.531 "/>
<polygon style="fill:#FFFFFF;" points="246.596,240.327 262.269,240.327 262.269,170.318 295.706,170.318 295.706,154.645 
	262.269,154.645 262.269,125.388 246.596,125.388 246.596,154.645 216.294,154.645 216.294,170.318 246.596,170.318 "/>
<polygon style="fill:#91DC5A;" points="86.727,417.959 86.727,449.787 55.38,418.179 55.38,449.787 24.033,418.179 24.033,454.531 
	123.601,454.531 "/>
<path style="fill:#FFFFFF;" d="M256,349.518c-24.482,0-44.408,19.926-44.408,44.408c0,12.978,5.663,25.266,15.548,33.729
	l2.738,2.351v24.524h7.314v-14.629h15.673v14.629h6.269v-14.629h15.673v14.629h6.269v-23.771l2.894-2.351
	c10.449-8.485,16.436-21.055,16.436-34.482C300.408,369.445,280.482,349.518,256,349.518z M222.041,399.151
	c0-8.656,7.018-15.673,15.673-15.673s15.673,7.018,15.673,15.673c0,8.656-7.018,15.673-15.673,15.673
	S222.041,407.807,222.041,399.151z M248.686,423.184l7.314-7.314l7.314,7.314H248.686z M274.286,414.824
	c-8.656,0-15.673-7.018-15.673-15.673c0-8.656,7.018-15.673,15.673-15.673c8.656,0,15.673,7.018,15.673,15.673
	C289.959,407.807,282.942,414.824,274.286,414.824z"/>
<rect x="15.673" y="470.204" style="fill:#57565C;" width="480.653" height="26.122"/>
<path d="M106.58,313.306l51.908-32.442l-15.061-31.199l17.363-14.884l-10.2-11.9l-26.523,22.733l14.196,29.406l-31.683,19.804
	V164.571c0-37.573,13.996-71.935,37.04-98.163l22.84,18.81l-8.011,25.034l18.257,23.126l12.302-9.712l-13.089-16.58l5.345-16.703
	h27.717V74.709h-30.625l-23.748-19.557c26.547-24.491,61.99-39.478,100.871-39.478c56.441,0,105.65,31.567,130.895,77.973
	l-44.534,44.534l9.261,35.191l-25.207,16.515l8.59,13.11l20.823-13.643l5.964,22.666l15.157-3.988l-17.139-65.133l34.198-34.2
	c7.014,17.262,10.889,36.122,10.889,55.873v220.996h15.673V164.571C420.049,73.826,346.223,0,255.478,0
	S90.906,73.826,90.906,164.571v220.996h15.673V313.306z"/>
<polygon points="388.401,454.531 425.273,417.961 425.273,449.79 456.62,418.182 456.62,449.79 487.967,418.182 487.967,441.992 
	503.641,441.992 503.641,380.12 472.294,411.728 472.294,380.12 440.947,411.728 440.947,380.341 366.144,454.531 317.649,454.531 
	317.649,470.204 496.327,470.204 496.327,496.327 15.673,496.327 15.673,470.204 193.306,470.204 193.306,454.531 145.855,454.531 
	71.053,380.341 71.053,411.728 39.706,380.12 39.706,411.728 8.359,380.12 8.359,441.992 24.033,441.992 24.033,418.182 
	55.38,449.79 55.38,418.182 86.727,449.79 86.727,417.961 123.598,454.531 0,454.531 0,512 512,512 512,454.531 "/>
<path d="M296.751,470.204v-32.137c12.332-11.371,19.331-27.25,19.331-44.141c0-33.13-26.952-60.082-60.082-60.082
	s-60.082,26.952-60.082,60.082c0,16.322,6.62,31.844,18.286,43.143v33.135H296.751z M211.592,393.927
	c0-24.487,19.921-44.408,44.408-44.408s44.408,19.921,44.408,44.408c0,13.429-5.99,25.997-16.435,34.482l-2.895,2.352v23.77h-6.269
	v-14.629h-15.673v14.629h-6.269v-14.629h-15.673v14.629h-7.314v-24.525l-2.739-2.346
	C217.258,419.197,211.592,406.902,211.592,393.927z"/>
<circle cx="237.714" cy="399.151" r="15.673"/>
<circle cx="274.286" cy="399.151" r="15.673"/>
<polygon points="263.314,423.184 256,415.869 248.686,423.184 "/>
<path d="M230.922,109.714v29.257H200.62v47.02h30.302V256h47.02v-70.008h33.437v-47.02h-33.437v-29.257H230.922z M295.706,154.645
	v15.673h-33.437v70.008h-15.673v-70.008h-30.302v-15.673h30.302v-29.257h15.673v29.257H295.706z"/>
<rect x="203.755" y="301.975" width="104.49" height="15.673"/>
<rect x="226.743" y="275.853" width="94.041" height="15.673"/>
<rect x="190.171" y="275.853" width="26.122" height="15.673"/>
<g>
</g>
<g>
</g>
<g>
</g>
<g>
</g>
<g>
</g>
<g>
</g>
<g>
</g>
<g>
</g>
<g>
</g>
<g>
</g>
<g>
</g>
<g>
</g>
<g>
</g>
<g>
</g>
<g>
</g>
</svg>
