<?xml version="1.0" encoding="iso-8859-1"?>
<!-- Generator: Adobe Illustrator 19.0.0, SVG Export Plug-In . SVG Version: 6.00 Build 0)  -->
<svg version="1.1" id="Capa_1" xmlns="http://www.w3.org/2000/svg" xmlns:xlink="http://www.w3.org/1999/xlink" x="0px" y="0px"
	 viewBox="0 0 511.997 511.997" style="enable-background:new 0 0 511.997 511.997;" xml:space="preserve">
<circle style="fill:#EFDA45;" cx="255.999" cy="255.999" r="255.999"/>
<path style="fill:#EDC148;" d="M404.744,464.374c-41.921,29.984-93.269,47.623-148.744,47.623
	C114.616,511.997,0.003,397.383,0.003,256c0-116.947,78.426-215.581,185.546-246.18C120.625,56.266,78.306,132.285,78.306,218.195
	c0,141.383,114.613,255.998,256.008,255.998C358.739,474.191,382.366,470.772,404.744,464.374z"/>
<ellipse transform="matrix(-0.7449 -0.6672 0.6672 -0.7449 196.9821 324.1376)" style="fill:#D8A72B;" cx="160.461" cy="124.409" rx="32.24" ry="55.281"/>
<path style="fill:#CC9519;" d="M194.998,131.651c-2.887,4.852-6.408,9.674-10.524,14.27c-20.372,22.737-47.633,31.54-60.9,19.665
	c-13.267-11.885-7.504-39.945,12.858-62.692c2.242-2.498,4.566-4.832,6.941-6.982c-11.404,19.164-12.929,38.952-2.344,48.432
	C152.831,154.93,175.742,149.105,194.998,131.651z"/>
<ellipse transform="matrix(-0.9999 -0.0101 0.0101 -0.9999 144.0017 539.6819)" style="fill:#D8A72B;" cx="73.364" cy="269.477" rx="24.529" ry="42.048"/>
<path style="fill:#CC9519;" d="M97.899,269.707c-0.235,23.218-11.404,41.941-24.948,41.798
	c-13.554-0.133-24.344-19.072-24.108-42.289c0.041-3.88,0.379-7.627,0.993-11.179c2.57,18.079,12.008,31.499,23.402,31.612
	c11.292,0.113,20.935-12.858,23.965-30.619C97.694,262.438,97.94,266.021,97.899,269.707z"/>
<ellipse transform="matrix(0.9105 0.4135 -0.4135 0.9105 161.3288 -147.528)" style="fill:#D8A72B;" cx="421.477" cy="298.93" rx="29.22" ry="42.05"/>
<path style="fill:#CC9519;" d="M448.087,311.024c-9.603,21.14-29.299,32.881-43.989,26.207
	c-13.574-6.163-18.13-25.879-11.179-45.514c0.481,11.783,5.497,21.58,14.352,25.593c14.7,6.675,34.397-5.057,43.999-26.207
	c0.727-1.617,1.382-3.235,1.955-4.852C453.543,294.01,451.895,302.629,448.087,311.024z"/>
<ellipse transform="matrix(0.7015 -0.7127 0.7127 0.7015 13.8699 305.5222)" style="fill:#D8A72B;" cx="371.641" cy="136.204" rx="43.061" ry="73.824"/>
<path style="fill:#CC9519;" d="M428.605,145.962c-4.473-6.828-9.961-13.544-16.379-19.86
	c-29.063-28.602-66.142-38.041-82.828-21.099c-9.285,9.449-10.288,25.091-4.33,42.033c-15.816-24.078-19.041-49.414-6.04-62.63
	c16.686-16.942,53.765-7.504,82.818,21.099C414.725,118.179,423.867,132.48,428.605,145.962z"/>
<ellipse transform="matrix(0.8527 0.5223 -0.5223 0.8527 153.1957 -70.9272)" style="fill:#D8A72B;" cx="202.391" cy="236.236" rx="17.328" ry="29.705"/>
<path style="fill:#CC9519;" d="M222.371,233.577c-1.102,3.842-2.843,7.838-5.222,11.721c-8.57,13.987-22.135,21.28-30.292,16.284
	c-8.158-4.995-7.828-20.394,0.742-34.381c1.04-1.699,2.153-3.296,3.317-4.779c-2.874,10.001-1.401,19.034,4.491,22.639
	C202.574,249.46,213.915,244.361,222.371,233.577z"/>
<circle style="fill:#D8A72B;" cx="167.529" cy="423.338" r="18.06"/>
<g>
</g>
<g>
</g>
<g>
</g>
<g>
</g>
<g>
</g>
<g>
</g>
<g>
</g>
<g>
</g>
<g>
</g>
<g>
</g>
<g>
</g>
<g>
</g>
<g>
</g>
<g>
</g>
<g>
</g>
</svg>
