<?xml version="1.0" encoding="iso-8859-1"?>
<!-- Generator: Adobe Illustrator 19.0.0, SVG Export Plug-In . SVG Version: 6.00 Build 0)  -->
<svg version="1.1" id="Layer_1" xmlns="http://www.w3.org/2000/svg" xmlns:xlink="http://www.w3.org/1999/xlink" x="0px" y="0px"
	 viewBox="0 0 512 512" style="enable-background:new 0 0 512 512;" xml:space="preserve">
<path style="fill:#F78CC2;" d="M241.633,28.324c-23.93,0-46.704,4.942-67.368,13.849c-10.08-12.701-25.64-20.857-43.113-20.857
	c-30.389,0-55.025,24.636-55.025,55.025c0,2.42,0.173,4.798,0.476,7.135c-2.954-0.877-6.079-1.355-9.318-1.355
	c-18.057,0-32.694,14.638-32.694,32.693c0,14.298,9.183,26.444,21.968,30.884c-3.113,5.005-4.916,10.91-4.916,17.237
	c0,13.449,8.123,24.996,19.728,30.016c-0.063,1.906-0.106,3.817-0.106,5.738c0,94.091,76.276,170.368,170.368,170.368
	S412,292.782,412,198.691C412.001,104.601,335.724,28.324,241.633,28.324z"/>
<path style="fill:#CCE7A0;" d="M264.41,8.657c-17.78,0-35.045,2.194-51.554,6.302c0.481,5.574,0.741,11.211,0.741,16.91
	c0,96.243-70.057,176.11-161.954,191.422c0.993,116.669,95.862,210.945,212.767,210.945c117.521,0,212.79-95.27,212.79-212.79
	C477.2,103.925,381.93,8.657,264.41,8.657z"/>
<path style="fill:#AED893;" d="M310.01,402.822c-111.001,0-202.134-84.996-211.906-193.453
	c-14.625,6.486-30.201,11.212-46.461,13.921c0.993,116.669,95.862,210.945,212.767,210.945c54.734,0,104.635-20.672,142.339-54.627
	C377.725,394.45,344.845,402.822,310.01,402.822z"/>
<path style="fill:#7F184C;" d="M312.348,247.115L312.348,247.115c45.93,0,83.163,37.234,83.163,83.163v25.295H229.185v-25.295
	C229.185,284.349,266.419,247.115,312.348,247.115z"/>
<path style="fill:#B5E589;" d="M312.348,285.23L312.348,285.23c-26.95,0-48.796,21.847-48.796,48.796v55.915v37.512v21.824
	c0,8.983,7.282,16.265,16.265,16.265l0,0c8.983,0,16.265-7.282,16.265-16.265v37.802c0,8.983,7.282,16.265,16.265,16.265
	c8.983,0,16.265-7.282,16.265-16.265v-23.373c0,8.983,7.282,16.265,16.265,16.265c8.983,0,16.265-7.282,16.265-16.265v-36.252
	V404.37v-70.342C361.144,307.077,339.298,285.23,312.348,285.23z"/>
<g>
	<path style="fill:#8BC673;" d="M344.878,395.19c-16.063,0-16.265,7.108-16.265,7.108c-2.235,8.231-7.282,16.265-16.265,16.265
		s-16.265-7.282-16.265-16.265c0,0,2.724-21.535-16.265-21.535c-8.983,0-16.265-7.282-16.265-16.265v26.076v37.512v21.824
		c0,8.983,7.282,16.265,16.265,16.265c8.983,0,16.265-7.282,16.265-16.265v37.801c0,8.983,7.282,16.265,16.265,16.265
		c8.983,0,16.265-7.282,16.265-16.265v-23.373c0,8.983,7.282,16.265,16.265,16.265c8.983,0,16.265-7.282,16.265-16.265v-36.252
		v-23.084v-26.076C361.144,387.907,353.862,395.19,344.878,395.19z"/>
	<circle style="fill:#8BC673;" cx="326.076" cy="351.135" r="8.657"/>
	<circle style="fill:#8BC673;" cx="314.107" cy="387.158" r="8.657"/>
	<circle style="fill:#8BC673;" cx="290.296" cy="342.478" r="8.657"/>
</g>
<path d="M264.41,0c-18.11,0-36.158,2.207-53.644,6.558c-4.13,1.028-6.9,4.905-6.534,9.146c0.471,5.446,0.709,10.884,0.709,16.166
	c0,44.156-15.782,86.926-44.437,120.433c-21.536,25.183-49.322,44.026-80.186,54.756c-0.126-2.615-0.187-5.334-0.187-8.367
	c0-1.634,0.032-3.367,0.102-5.452c0.118-3.555-1.951-6.819-5.216-8.232c-8.814-3.811-14.507-12.476-14.507-22.071
	c0-4.49,1.248-8.869,3.609-12.664c1.39-2.235,1.689-4.979,0.81-7.461c-0.877-2.479-2.836-4.426-5.321-5.29
	c-9.661-3.354-16.152-12.481-16.152-22.707c0-13.254,10.784-24.036,24.038-24.036c2.32,0,4.626,0.336,6.854,0.996
	c2.808,0.837,5.847,0.19,8.077-1.708c2.231-1.9,3.347-4.797,2.971-7.703c-0.271-2.094-0.404-4.064-0.404-6.023
	c0-25.566,20.8-46.367,46.368-46.367c14.225,0,27.468,6.408,36.333,17.58c2.971,3.745,8.417,4.371,12.162,1.4
	c3.744-2.971,4.372-8.417,1.4-12.162c-12.169-15.336-30.356-24.131-49.896-24.131c-34.152,0-62.111,27.019-63.617,60.806
	c-0.083-0.001-0.166-0.001-0.249-0.001c-22.801,0-41.351,18.549-41.351,41.35c0,14.361,7.439,27.459,19.213,34.925
	c-1.423,4.227-2.158,8.681-2.158,13.196c0,14.482,7.538,27.728,19.623,35.186c-0.001,0.19-0.001,0.38-0.001,0.568
	c0,4.881,0.145,9.154,0.464,13.382c-4.311,1.046-8.666,1.946-13.06,2.678c-4.202,0.701-7.27,4.353-7.235,8.613
	c0.497,58.434,23.54,113.377,64.882,154.704c39.521,39.508,91.48,62.269,147.026,64.608v6.6c0,13.742,11.181,24.923,24.923,24.923
	c2.652,0,5.209-0.417,7.609-1.187v14.065c0,13.742,11.181,24.923,24.922,24.923c13.622,0,24.726-10.986,24.921-24.56
	c2.4,0.771,4.957,1.188,7.611,1.188c13.742,0,24.922-11.181,24.922-24.923v-99.475h25.711c4.782,0,8.657-3.875,8.657-8.657v-25.295
	c0-50.63-41.192-91.82-91.821-91.82s-91.82,41.19-91.82,91.82v25.295c0,4.782,3.875,8.657,8.657,8.657h25.71v61.117
	c-50.922-2.328-98.531-23.281-134.786-59.523c-36.4-36.388-57.411-84.221-59.621-135.374c43.876-9.024,83.832-32.585,113.173-66.894
	c31.336-36.641,48.594-83.408,48.594-131.687c0-3.333-0.087-6.721-0.259-10.132c13.899-2.937,28.133-4.424,42.413-4.424
	c112.56,0,204.133,91.573,204.133,204.132c0,51.519-19.246,100.716-54.193,138.524c-3.246,3.511-3.03,8.988,0.481,12.233
	c3.511,3.246,8.989,3.031,12.234-0.481c37.912-41.017,58.792-94.386,58.792-150.275C485.856,99.34,386.517,0,264.41,0z
	 M352.487,463.704c0,4.197-3.413,7.61-7.609,7.61c-4.196,0-7.609-3.413-7.609-7.61c0-4.782-3.875-8.657-8.657-8.657
	c-4.782,0-8.657,3.875-8.657,8.657v23.373c0,4.197-3.414,7.61-7.61,7.61c-4.196,0-7.609-3.413-7.609-7.61v-37.801
	c0-4.782-3.875-8.657-8.657-8.657s-8.657,3.875-8.657,8.657c0,4.197-3.413,7.61-7.609,7.61c-4.197,0-7.61-3.413-7.61-7.61V334.026
	c0-22.133,18.007-40.139,40.139-40.139c22.132,0,40.139,18.007,40.139,40.139v129.678H352.487z M237.841,346.916v-16.638
	c0-41.083,33.424-74.507,74.507-74.507c41.084,0,74.508,33.424,74.508,74.507v16.638h-17.055v-12.89
	c0-31.679-25.772-57.452-57.452-57.452s-57.452,25.774-57.452,57.452v12.89H237.841z"/>
<path d="M252.244,170.023c-3.382-3.38-8.862-3.38-12.243,0l-16.459,16.459l-16.459-16.459c-3.382-3.38-8.862-3.38-12.243,0
	c-3.381,3.382-3.381,8.862,0,12.243l16.459,16.459l-16.459,16.459c-3.381,3.382-3.381,8.862,0,12.243
	c1.691,1.69,3.907,2.535,6.122,2.535c2.215,0,4.431-0.845,6.122-2.535l16.459-16.459l16.459,16.459
	c1.691,1.69,3.907,2.535,6.122,2.535s4.431-0.845,6.122-2.535c3.381-3.382,3.381-8.862,0-12.243l-16.459-16.459l16.459-16.459
	C255.624,178.884,255.624,173.403,252.244,170.023z"/>
<path d="M416.142,215.184l-16.459-16.459l16.459-16.459c3.381-3.382,3.381-8.862,0-12.243c-3.382-3.38-8.862-3.38-12.243,0
	l-16.459,16.459l-16.459-16.459c-3.382-3.38-8.862-3.38-12.243,0c-3.381,3.382-3.381,8.862,0,12.243l16.459,16.459l-16.459,16.459
	c-3.381,3.382-3.381,8.862,0,12.243c1.691,1.69,3.907,2.535,6.122,2.535c2.215,0,4.431-0.845,6.122-2.535l16.459-16.459
	l16.459,16.459c1.691,1.69,3.907,2.535,6.122,2.535s4.431-0.845,6.122-2.535C419.523,224.044,419.523,218.564,416.142,215.184z"/>
<path d="M157.063,94.408c1.584,2.844,4.531,4.447,7.57,4.446c1.424,0,2.871-0.353,4.205-1.095c4.177-2.327,5.676-7.598,3.35-11.774
	c-5.18-9.302-15.008-15.079-25.649-15.079c-10.322,0-20.144,5.687-25.632,14.84c-2.458,4.101-1.128,9.417,2.973,11.876
	c4.102,2.457,9.416,1.127,11.876-2.973c2.378-3.966,6.51-6.429,10.783-6.429C150.902,88.218,154.935,90.59,157.063,94.408z"/>
<path d="M107.839,124.804c-8.749,5.479-14.054,15.511-13.845,26.185c0.093,4.723,3.95,8.488,8.652,8.488
	c0.058,0,0.115,0,0.172-0.001c4.781-0.095,8.58-4.046,8.487-8.825c-0.091-4.624,2.102-8.905,5.724-11.174
	c3.698-2.315,8.373-2.447,12.205-0.339c4.187,2.304,9.452,0.777,11.758-3.412c2.304-4.189,0.777-9.452-3.412-11.758
	C128.25,118.833,116.852,119.154,107.839,124.804z"/>
<circle cx="398.088" cy="385.634" r="8.657"/>
<g>
</g>
<g>
</g>
<g>
</g>
<g>
</g>
<g>
</g>
<g>
</g>
<g>
</g>
<g>
</g>
<g>
</g>
<g>
</g>
<g>
</g>
<g>
</g>
<g>
</g>
<g>
</g>
<g>
</g>
</svg>
