<?xml version="1.0" encoding="iso-8859-1"?>
<!-- Generator: Adobe Illustrator 19.0.0, SVG Export Plug-In . SVG Version: 6.00 Build 0)  -->
<svg version="1.1" id="Capa_1" xmlns="http://www.w3.org/2000/svg" xmlns:xlink="http://www.w3.org/1999/xlink" x="0px" y="0px"
	 viewBox="0 0 512 512" style="enable-background:new 0 0 512 512;" xml:space="preserve">
<rect x="158.251" y="438" style="fill:#D8D8E4;" width="148.83" height="64"/>
<path style="fill:#72D8FF;" d="M400.867,195.468c-18.683-6.8-39.342,2.833-46.142,21.516l-21.81,59.923l-21.492-16.596V91.926
	C311.423,76.503,298.92,64,283.497,64l0,0c-15.409,0-27.906,12.481-27.926,27.89L255.566,98h-0.143V37.926
	c0-15.423-12.502-27.926-27.925-27.926l0,0c-15.409,0-27.906,12.481-27.926,27.89l-0.149,112.534V91.926
	c0-15.423-12.502-27.926-27.925-27.926l0,0c-15.409,0-27.906,12.481-27.926,27.89l-0.085,64.036h-0.064
	c0-15.423-12.503-27.926-27.926-27.926l0,0c-15.409,0-27.906,12.481-27.926,27.89l-0.149,194.457L134.756,438h193.333l54.619-87.386
	l39.674-109.004C429.184,222.926,419.55,202.268,400.867,195.468z"/>
<path style="fill:#4DBAF6;" d="M400.867,195.468L400.867,195.468c-18.683-6.8-39.342,2.833-46.142,21.516l-39.674,109.004
	l-1.878,0.005h-28.476c-15.032,0-27.218,12.186-27.218,27.218V438h70.611l54.619-87.386l39.674-109.004
	C429.184,222.926,419.55,202.268,400.867,195.468z"/>
<g>
	<circle style="fill:#FFB954;" cx="143.421" cy="276.91" r="20"/>
	<circle style="fill:#FFB954;" cx="255.421" cy="276.91" r="20"/>
</g>
<path d="M430.245,209.856c-5.193-11.136-14.411-19.583-25.958-23.786c-11.545-4.202-24.037-3.657-35.173,1.536
	c-11.136,5.193-19.583,14.412-23.785,25.958l-17.131,47.067l-6.775-5.231V91.926C321.423,71.013,304.41,54,283.498,54
	c-6.539,0-12.698,1.666-18.075,4.595V37.926C265.423,17.013,248.41,0,227.498,0c-20.886,0-37.899,16.992-37.926,37.876
	l-0.027,20.699C184.175,55.659,178.026,54,171.498,54c-20.886,0-37.899,16.992-37.926,37.876l-0.041,30.693
	c-5.367-2.913-11.51-4.569-18.034-4.569c-20.886,0-37.899,16.992-37.926,37.882l-0.149,194.457c-0.001,1.662,0.412,3.297,1.201,4.76
	l47.333,87.653c1.746,3.232,5.125,5.248,8.799,5.248h13.5v54c0,5.522,4.477,10,10,10s10-4.478,10-10v-54h29.611v54
	c0,5.522,4.477,10,10,10s10-4.478,10-10v-54h29.611v54c0,5.522,4.477,10,10,10s10-4.478,10-10v-54h29.611v54c0,5.522,4.477,10,10,10
	s10-4.478,10-10v-54h11c3.448,0,6.652-1.776,8.48-4.7l54.619-87.387c0.371-0.593,0.678-1.223,0.917-1.88l39.674-109.004
	C435.983,233.483,435.438,220.992,430.245,209.856z M255.423,266.907c5.514,0,10,4.486,10,10s-4.486,10-10,10
	c-5.514,0-10-4.486-10-10S249.909,266.907,255.423,266.907z M143.423,266.907c5.514,0,10,4.486,10,10s-4.486,10-10,10
	s-10-4.486-10-10S137.909,266.907,143.423,266.907z M140.721,428l-43.296-80.178l0.107-139.885h13.558c5.523,0,10-4.477,10-10
	s-4.477-10-10-10H97.547l0.025-32.035C97.585,146.03,105.626,138,115.498,138c9.884,0,17.925,8.042,17.925,17.926v92.702
	c-11.639,4.128-20,15.243-20,28.28c0,16.542,13.458,30,30,30s30-13.458,30-30c0-13.036-8.361-24.152-20-28.28v-40.69h13
	c5.523,0,10-4.477,10-10s-4.477-10-10-10h-12.978L153.511,138h12.912c5.523,0,10-4.477,10-10s-4.477-10-10-10h-12.886l0.035-26.098
	C153.585,82.031,161.626,74,171.498,74c9.884,0,17.925,8.042,17.925,17.926v145.741c0,5.523,4.477,10,10,10s10-4.477,10-10v-87.229
	l0.149-112.535C209.585,28.031,217.626,20,227.498,20c9.884,0,17.925,8.042,17.925,17.926V96h-17.946c-5.523,0-10,4.477-10,10
	s4.477,10,10,10h17.946v0.332c0,0.513,0.051,1.013,0.125,1.505l-0.064,70.101h-18.007c-5.523,0-10,4.477-10,10s4.477,10,10,10
	h17.989l-0.037,40.688c-11.642,4.126-20.006,15.243-20.006,28.282c0,16.542,13.458,30,30,30s30-13.458,30-30
	c0-13.034-8.358-24.148-19.994-28.278l0.143-156.727C265.585,82.031,273.626,74,283.498,74c9.884,0,17.925,8.042,17.925,17.926V118
	h-11c-5.523,0-10,4.477-10,10c0,5.523,4.477,10,10,10h11v49.938h-11c-5.523,0-10,4.477-10,10s4.477,10,10,10h11v52.374
	c0,3.099,1.436,6.021,3.888,7.915l15.707,12.129l-12.971,35.638h-23.351c-20.522,0-37.218,16.696-37.218,37.218V428h-29.611v-62.781
	c0-20.522-16.696-37.219-37.218-37.219h-2.227c-5.523,0-10,4.478-10,10s4.477,10,10,10h2.227c9.494,0,17.218,7.725,17.218,17.219
	V428H140.721z M373.672,346.205L322.547,428h-55.069v-74.789c0-9.494,7.724-17.218,17.218-17.218h28.502l1.878-0.005
	c4.194-0.011,7.937-2.639,9.371-6.58l17.828-48.982c0.011-0.029,0.021-0.057,0.031-0.086l21.815-59.936
	c2.375-6.526,7.149-11.736,13.444-14.671c6.294-2.935,13.355-3.243,19.88-0.868c6.526,2.375,11.737,7.15,14.672,13.444
	s3.243,13.354,0.868,19.88l-8.55,23.492l-23.644-8.606c-5.189-1.887-10.928,0.788-12.817,5.977
	c-1.889,5.189,0.787,10.928,5.977,12.816l23.643,8.606L373.672,346.205z"/>
<path d="M199.423,286.91c2.63,0,5.21-1.07,7.07-2.931c1.86-1.859,2.93-4.439,2.93-7.069c0-2.641-1.07-5.21-2.93-7.07
	c-1.86-1.87-4.44-2.93-7.07-2.93s-5.21,1.06-7.07,2.93c-1.86,1.86-2.93,4.43-2.93,7.07c0,2.63,1.07,5.21,2.93,7.069
	C194.213,285.84,196.794,286.91,199.423,286.91z"/>
<path d="M143.423,328c-2.63,0-5.21,1.069-7.07,2.93s-2.93,4.44-2.93,7.07s1.07,5.21,2.93,7.069c1.86,1.86,4.44,2.931,7.07,2.931
	s5.21-1.07,7.07-2.931c1.86-1.859,2.93-4.439,2.93-7.069s-1.07-5.21-2.93-7.07C148.633,329.069,146.054,328,143.423,328z"/>
<g>
</g>
<g>
</g>
<g>
</g>
<g>
</g>
<g>
</g>
<g>
</g>
<g>
</g>
<g>
</g>
<g>
</g>
<g>
</g>
<g>
</g>
<g>
</g>
<g>
</g>
<g>
</g>
<g>
</g>
</svg>
