<?xml version="1.0" encoding="iso-8859-1"?>
<!-- Generator: Adobe Illustrator 19.0.0, SVG Export Plug-In . SVG Version: 6.00 Build 0)  -->
<svg version="1.1" id="Layer_1" xmlns="http://www.w3.org/2000/svg" xmlns:xlink="http://www.w3.org/1999/xlink" x="0px" y="0px"
	 viewBox="0 0 501.551 501.551" style="enable-background:new 0 0 501.551 501.551;" xml:space="preserve">
<path style="fill:#ACB3BA;" d="M359.445,494.237c-25.078,0-44.931-20.898-44.931-44.931v-10.449h8.359v10.449
	c0,20.898,16.718,37.616,37.616,37.616c20.898,0,37.616-16.718,37.616-37.616v-49.11c0-19.853,16.718-36.571,36.571-36.571
	c19.853,0,36.571,16.718,36.571,36.571v10.449h-8.359v-10.449c0-15.673-12.539-28.212-28.212-28.212s-28.212,12.539-28.212,28.212
	v49.11C405.42,473.339,384.522,494.237,359.445,494.237z"/>
<path style="fill:#334A5E;" d="M353.176,135.837H15.673C7.314,135.837,0,143.151,0,151.51v242.416h365.714V148.376
	C365.714,141.061,360.49,135.837,353.176,135.837z"/>
<path style="fill:#F2F2F2;" d="M0,392.882v29.257c0,8.359,7.314,15.673,15.673,15.673h334.367c8.359,0,15.673-7.314,15.673-15.673
	v-29.257H0z"/>
<g>
	<circle style="fill:#CDD6E0;" cx="182.857" cy="415.869" r="8.359"/>
	<rect x="112.849" y="437.812" style="fill:#CDD6E0;" width="140.016" height="40.751"/>
</g>
<path style="fill:#F2F2F2;" d="M278.988,501.551H86.727v-19.853c0-2.09,1.045-3.135,3.135-3.135h187.037
	c2.09,0,3.135,1.045,3.135,3.135v19.853H278.988z"/>
<rect x="112.849" y="437.812" style="fill:#ACB3BA;" width="140.016" height="11.494"/>
<rect x="24.033" y="157.78" style="fill:#FFFFFF;" width="316.604" height="213.159"/>
<rect x="42.841" y="177.633" style="fill:#FFD15C;" width="278.988" height="81.502"/>
<rect x="42.841" y="274.808" style="fill:#F2F2F2;" width="74.188" height="62.694"/>
<rect x="145.241" y="274.808" style="fill:#CDD6E0;" width="74.188" height="62.694"/>
<rect x="247.641" y="274.808" style="fill:#FF7058;" width="74.188" height="62.694"/>
<polygon style="fill:#40596B;" points="292.571,309.29 303.02,350.041 313.469,339.592 322.873,350.041 332.278,340.637 
	321.829,330.188 332.278,320.784 "/>
<path style="fill:#F2F2F2;" d="M501.551,436.767v29.257c0,19.853-15.673,35.527-35.527,35.527
	c-19.853,0-35.527-15.673-35.527-35.527v-29.257c0-1.045,0-2.09,0-3.135c0-2.09,1.045-4.18,1.045-6.269
	c4.18-13.584,15.673-24.033,31.347-26.122c1.045,0,2.09,0,3.135,0c1.045,0,2.09,0,3.135,0c8.359,1.045,15.673,4.18,21.943,10.449
	c4.18,4.18,7.314,9.404,9.404,15.673c0,2.09,1.045,4.18,1.045,6.269C501.551,434.678,501.551,435.722,501.551,436.767z"/>
<path style="fill:#FFFFFF;" d="M500.506,427.363h-31.347v-26.122c-1.045,0-2.09,0-3.135,0s-2.09,0-3.135,0v26.122h-31.347
	c0,2.09-1.045,4.18-1.045,6.269h70.008C501.551,431.543,500.506,429.453,500.506,427.363z"/>
<circle style="fill:#FFD15C;" cx="238.237" cy="122.253" r="45.976"/>
<circle style="fill:#F8B64C;" cx="238.237" cy="122.253" r="34.482"/>
<g>
	<path style="fill:#FFD15C;" d="M236.147,134.792v-11.494c-3.135-1.045-6.269-2.09-7.314-4.18c-2.09-2.09-2.09-4.18-2.09-7.314
		s1.045-5.224,3.135-7.314c2.09-2.09,4.18-3.135,7.314-3.135V98.22h4.18v2.09c3.135,0,5.224,1.045,6.269,3.135
		c2.09,2.09,3.135,4.18,3.135,6.269l-6.269,1.045c0-2.09-1.045-3.135-3.135-4.18v10.449c4.18,1.045,7.314,3.135,8.359,4.18
		c1.045,2.09,2.09,4.18,2.09,7.314c0,3.135-1.045,6.269-3.135,8.359c-2.09,2.09-4.18,3.135-8.359,4.18v5.224h-4.18v-5.224
		c-3.135,0-5.224-1.045-7.314-3.135c-2.09-2.09-3.135-4.18-3.135-8.359l7.314-1.045c0,1.045,1.045,2.09,2.09,3.135
		C234.057,132.702,235.102,133.747,236.147,134.792z M236.147,106.58c-1.045,0-2.09,1.045-2.09,2.09
		c-1.045,1.045-1.045,2.09-1.045,3.135s0,2.09,1.045,2.09c1.045,1.045,1.045,1.045,2.09,2.09V106.58z M240.327,134.792
		c1.045,0,2.09-1.045,3.135-2.09c1.045-1.045,1.045-2.09,1.045-3.135c0-1.045,0-2.09-1.045-3.135
		c-1.045-1.045-2.09-1.045-3.135-2.09V134.792z"/>
	<circle style="fill:#FFD15C;" cx="126.433" cy="64.784" r="64.784"/>
</g>
<circle style="fill:#F8B64C;" cx="126.433" cy="64.784" r="49.11"/>
<path style="fill:#FFD15C;" d="M123.298,82.547V66.873c-5.224-1.045-8.359-3.135-10.449-6.269c-2.09-3.135-3.135-6.269-3.135-10.449
	s1.045-7.314,4.18-10.449c2.09-3.135,6.269-4.18,10.449-5.224v-3.135h5.224v4.18c4.18,0,7.314,2.09,9.404,4.18
	c2.09,2.09,4.18,5.224,4.18,9.404l-9.404,1.045c-1.045-3.135-2.09-5.224-4.18-6.269v14.629c6.269,2.09,10.449,4.18,12.539,6.269
	c2.09,2.09,3.135,6.269,3.135,9.404c0,4.18-1.045,8.359-4.18,11.494s-6.269,5.224-11.494,5.224v7.314h-5.224v-6.269
	c-4.18-1.045-7.314-2.09-10.449-5.224c-3.135-3.135-4.18-6.269-5.224-11.494l9.404-1.045c0,2.09,1.045,4.18,2.09,5.224
	C121.208,81.502,122.253,82.547,123.298,82.547z M123.298,43.886c-1.045,0-3.135,1.045-3.135,2.09
	c-1.045,1.045-1.045,2.09-1.045,4.18c0,1.045,0,2.09,1.045,4.18c1.045,1.045,2.09,2.09,3.135,3.135V43.886z M129.567,83.592
	c2.09,0,3.135-1.045,4.18-2.09c1.045-1.045,2.09-3.135,2.09-5.224c0-2.09,0-3.135-1.045-4.18c-1.045-1.045-2.09-2.09-5.224-3.135
	C129.567,68.963,129.567,83.592,129.567,83.592z"/>
<g>
</g>
<g>
</g>
<g>
</g>
<g>
</g>
<g>
</g>
<g>
</g>
<g>
</g>
<g>
</g>
<g>
</g>
<g>
</g>
<g>
</g>
<g>
</g>
<g>
</g>
<g>
</g>
<g>
</g>
</svg>
