<?xml version="1.0" encoding="iso-8859-1"?>
<!-- Generator: Adobe Illustrator 19.0.0, SVG Export Plug-In . SVG Version: 6.00 Build 0)  -->
<svg version="1.1" id="Layer_1" xmlns="http://www.w3.org/2000/svg" xmlns:xlink="http://www.w3.org/1999/xlink" x="0px" y="0px"
	 viewBox="0 0 512 512" style="enable-background:new 0 0 512 512;" xml:space="preserve">
<path style="fill:#E6E6E6;" d="M218.559,164.446h0.138c5.401-0.035,10.463-2.172,14.257-6.016c3.793-3.844,5.862-8.937,5.826-14.338
	c-0.074-11.072-9.142-20.08-20.213-20.08h-0.14c-5.401,0.035-10.462,2.172-14.255,6.016c-3.793,3.843-5.862,8.934-5.826,14.335
	C198.421,155.436,207.489,164.446,218.559,164.446z"/>
<path style="fill:#333333;" d="M218.785,177.491h-0.224c-18.216,0-33.135-14.822-33.258-33.041
	c-0.038-5.612,1.31-11.018,3.877-15.835c-8.105-2.863-16.602-4.328-25.334-4.24c-41.387,0.278-74.836,34.172-74.558,75.56
	c0.134,20.049,8.068,38.844,22.339,52.926c14.148,13.961,32.848,21.63,52.705,21.63c0.172,0,0.344,0,0.517-0.001
	c20.049-0.134,38.845-8.067,52.928-22.338c14.083-14.27,21.765-33.172,21.631-53.22c-0.059-8.877-1.668-17.449-4.712-25.602
	C229.881,176.006,224.448,177.453,218.785,177.491z"/>
<path style="fill:#81AF31;" d="M187.031,78.243l-0.925,0.004c-74.605,0.5-134.896,61.6-134.397,136.201
	c0.496,74.11,61.183,134.404,135.282,134.404l0.925-0.004c74.602-0.498,134.89-61.602,134.392-136.209
	C321.813,138.532,261.127,78.243,187.031,78.243z M227.063,261.313c-16.529,16.751-38.593,26.064-62.126,26.22
	c-0.201,0.001-0.406,0.001-0.607,0.001c-23.309,0.001-45.255-9.001-61.864-25.389c-16.752-16.528-26.065-38.592-26.221-62.125
	c-0.325-48.578,38.935-88.365,87.515-88.691c11.941-0.035,23.449,2.192,34.313,6.701c5.765-4.528,12.819-7.016,20.269-7.065h0.227
	c18.217,0,33.137,14.82,33.258,33.039c0.05,7.396-2.309,14.434-6.697,20.236c4.772,10.913,7.243,22.528,7.323,34.603
	C252.61,222.377,243.592,244.562,227.063,261.313z"/>
<path style="fill:#E6E6E6;" d="M398.302,186.425c22.828-1.542,32.038,8.09,35.631,14.601c17.112-0.69,38.853,1.828,61.39,13.127
	C479.768,125.361,415.67,52.883,331.675,25.177c-31.679-2.057-38.889,16.897-39.183,17.715c-0.909,2.725-3.436,4.429-6.155,4.429
	c-0.69,0-1.392-0.11-2.085-0.34c-3.418-1.14-5.252-4.87-4.112-8.286c0.099-0.296,0.777-2.22,2.356-4.902
	c-4.756,1.404-9.711,3.846-13.564,8.085c-1.288,1.415-3.055,2.135-4.828,2.135c-1.565,0-3.136-0.561-4.386-1.697
	c-2.666-2.422-2.862-6.549-0.44-9.212c12.553-13.807,31.639-14.404,38.396-14.138c1.037-0.597,2.147-1.165,3.302-1.711
	c-14.579-2.751-29.6-4.208-44.947-4.208l-1.658,0.005C120.412,13.945,12.156,123.661,13.051,257.625
	c0.467,70.021,30.871,133.162,78.953,177.285c-5.857-15.029-10.495-35.582-10.232-62.849c0.035-3.581,2.948-6.46,6.521-6.46h0.064
	c3.603,0.034,6.495,2.983,6.46,6.585c-0.082,8.484,0.35,16.221,1.141,23.294c4.277-6.151,10.71-11.918,20.415-15.165
	c3.418-1.143,7.112,0.702,8.255,4.117s-0.701,7.112-4.117,8.255c-16.808,5.622-19.49,22.802-19.895,26.94
	c6.682,23.427,17.175,34.981,20.664,38.324c38.611,25.88,84.964,41.001,134.684,41.001l1.657-0.005
	c33.33-0.223,65.583-7.121,95.256-20.021c-15.479-8.736-39.105-30.86-59.603-86.918c-1.237-3.383,0.502-7.128,3.886-8.366
	c3.386-1.238,7.129,0.504,8.366,3.886c3.964,10.84,8.013,20.27,12.055,28.496c2.163-10.428,7.789-21.626,19.497-31.287
	c2.776-2.292,6.889-1.901,9.182,0.879c2.293,2.779,1.899,6.889-0.879,9.182c-23.936,19.754-13.829,44.647-13.387,45.696
	c0.08,0.189,0.136,0.38,0.196,0.569c17.224,24.483,32.075,29.369,36.46,30.307c22.005-11.541,42.334-26.537,60.288-44.732
	c45.581-46.194,70.445-107.373,70.01-172.268c-0.055-8.133-0.518-16.176-1.361-24.106c-12.528-7.58-25.016-11.885-36.606-14.122
	c-4.27,0.282-21.503,2.533-21.079,20.529c0.085,3.602-2.766,6.59-6.367,6.675c-0.052,0.001-0.104,0.001-0.157,0.001
	c-3.531,0-6.434-2.819-6.517-6.368c-0.218-9.249,2.514-16.927,8.11-22.83c-18.492,0.646-30.997,5.369-31.241,5.464
	c-3.355,1.315-7.138-0.347-8.448-3.703c-1.311-3.355,0.347-7.138,3.702-8.448c0.777-0.304,7.776-2.956,18.833-4.79
	c-3.543-2.158-9.307-3.874-18.635-3.242c-3.604,0.249-6.705-2.472-6.949-6.066C391.992,189.779,394.708,186.669,398.302,186.425z
	 M188.003,361.893l-1.011,0.004c-39.416,0-76.532-15.3-104.51-43.082c-27.992-27.796-43.553-64.829-43.816-104.279
	c-0.548-81.795,65.556-148.787,147.353-149.335l1.012-0.004c39.415,0,76.53,15.3,104.508,43.081
	c27.99,27.793,43.55,64.825,43.814,104.274C335.899,294.352,269.798,361.346,188.003,361.893z"/>
<path d="M187.031,65.198l-1.012,0.004C104.221,65.75,38.118,132.74,38.664,214.536c0.264,39.45,15.825,76.485,43.816,104.279
	c27.979,27.782,65.094,43.082,104.51,43.082l1.011-0.004c81.796-0.547,147.897-67.541,147.351-149.34
	c-0.265-39.448-15.825-76.481-43.814-104.274C263.561,80.497,226.446,65.198,187.031,65.198z M187.916,348.848l-0.925,0.004
	c-74.099,0-134.786-60.295-135.282-134.404C51.211,139.847,111.5,78.747,186.106,78.247l0.925-0.004
	c74.096,0,134.782,60.291,135.278,134.396C322.807,287.246,262.518,348.35,187.916,348.848z"/>
<path d="M251.825,144.005c-0.121-18.218-15.041-33.039-33.258-33.039h-0.227c-7.449,0.05-14.503,2.537-20.269,7.065
	c-10.864-4.51-22.372-6.736-34.313-6.701c-48.582,0.326-87.84,40.113-87.515,88.691c0.158,23.533,9.471,45.597,26.221,62.125
	c16.609,16.388,38.555,25.391,61.864,25.389c0.201,0,0.407,0,0.607-0.001c23.533-0.157,45.597-9.469,62.126-26.22
	c16.53-16.752,25.547-38.938,25.389-62.47c-0.081-12.074-2.553-23.689-7.323-34.603
	C249.517,158.439,251.875,151.401,251.825,144.005z M204.173,130.027c3.792-3.844,8.855-5.981,14.255-6.016h0.14
	c11.071,0,20.139,9.007,20.213,20.08c0.037,5.402-2.032,10.493-5.826,14.338c-3.793,3.844-8.856,5.981-14.257,6.016h-0.138
	c-11.071,0-20.139-9.009-20.213-20.084C198.311,138.96,200.38,133.87,204.173,130.027z M217.777,252.15
	c-14.082,14.272-32.88,22.204-52.928,22.338c-0.172,0.001-0.344,0.001-0.517,0.001c-19.857,0-38.557-7.669-52.705-21.63
	c-14.271-14.082-22.205-32.877-22.339-52.926c-0.277-41.387,33.17-75.282,74.558-75.56c8.731-0.089,17.23,1.376,25.334,4.24
	c-2.567,4.816-3.915,10.223-3.877,15.835c0.121,18.22,15.041,33.041,33.258,33.041h0.224c5.663-0.037,11.096-1.485,15.911-4.161
	c3.043,8.153,4.652,16.725,4.712,25.602C239.542,218.979,231.86,237.881,217.777,252.15z"/>
<path d="M256.031,0l-1.744,0.005C113.132,0.95-0.937,116.556,0.006,257.713c0.455,68.077,27.307,131.983,75.611,179.945
	C123.898,485.599,187.946,512,255.963,512l1.744-0.005c68.38-0.458,132.489-27.515,180.517-76.188
	c48.029-48.676,74.227-113.137,73.77-181.515c-0.455-68.077-27.308-131.984-75.612-179.946C388.099,26.401,324.049,0,256.031,0z
	 M399.185,199.44c9.327-0.631,15.092,1.084,18.635,3.242c-11.057,1.834-18.055,4.485-18.833,4.79
	c-3.355,1.31-5.013,5.091-3.702,8.448c1.31,3.356,5.093,5.018,8.448,3.703c0.244-0.095,12.749-4.819,31.241-5.464
	c-5.595,5.903-8.328,13.581-8.11,22.83c0.083,3.549,2.987,6.368,6.517,6.368c0.052,0,0.104,0,0.157-0.001
	c3.602-0.086,6.452-3.075,6.367-6.675c-0.424-17.995,16.81-20.247,21.079-20.529c11.589,2.237,24.078,6.543,36.606,14.122
	c0.843,7.93,1.306,15.971,1.361,24.106c0.433,64.894-24.43,126.073-70.01,172.268c-17.955,18.195-38.284,33.191-60.288,44.732
	c-4.386-0.939-19.236-5.826-36.46-30.307c-0.06-0.19-0.116-0.381-0.196-0.569c-0.442-1.05-10.549-25.944,13.387-45.696
	c2.779-2.293,3.173-6.404,0.879-9.182c-2.293-2.78-6.406-3.171-9.182-0.879c-11.708,9.661-17.335,20.859-19.497,31.287
	c-4.043-8.226-8.092-17.656-12.055-28.496c-1.237-3.384-4.979-5.125-8.366-3.886c-3.383,1.238-5.123,4.983-3.886,8.366
	c20.499,56.058,44.124,78.182,59.603,86.918c-29.673,12.9-61.927,19.798-95.256,20.021l-1.657,0.005
	c-49.719,0-96.073-15.122-134.684-41.001c-3.49-3.343-13.983-14.897-20.664-38.324c0.406-4.139,3.088-21.319,19.895-26.94
	c3.416-1.143,5.26-4.84,4.117-8.255s-4.837-5.26-8.255-4.117c-9.705,3.247-16.138,9.014-20.415,15.165
	c-0.792-7.074-1.224-14.81-1.141-23.294c0.034-3.602-2.858-6.55-6.46-6.585h-0.064c-3.573,0-6.486,2.879-6.521,6.46
	c-0.262,27.265,4.375,47.82,10.232,62.849c-48.081-44.123-78.484-107.265-78.953-177.285
	C12.156,123.661,120.412,13.945,254.373,13.05l1.658-0.005c15.349,0,30.37,1.457,44.947,4.21c-1.153,0.547-2.265,1.114-3.302,1.711
	c-6.757-0.266-25.843,0.331-38.396,14.138c-2.422,2.665-2.227,6.79,0.44,9.212c1.25,1.136,2.82,1.697,4.386,1.697
	c1.773,0,3.54-0.72,4.828-2.135c3.855-4.24,8.808-6.682,13.564-8.085c-1.577,2.682-2.255,4.605-2.356,4.902
	c-1.14,3.416,0.695,7.145,4.112,8.286c0.691,0.231,1.393,0.34,2.085,0.34c2.719,0,5.245-1.705,6.155-4.429
	c0.294-0.818,7.503-19.772,39.183-17.715c83.994,27.706,148.093,100.184,163.646,188.977c-22.536-11.298-44.278-13.817-61.39-13.127
	c-3.591-6.511-12.802-16.143-35.631-14.601c-3.594,0.244-6.31,3.354-6.066,6.948C392.48,196.968,395.581,199.689,399.185,199.44z"/>
<g>
</g>
<g>
</g>
<g>
</g>
<g>
</g>
<g>
</g>
<g>
</g>
<g>
</g>
<g>
</g>
<g>
</g>
<g>
</g>
<g>
</g>
<g>
</g>
<g>
</g>
<g>
</g>
<g>
</g>
</svg>
