<?xml version="1.0" encoding="iso-8859-1"?>
<!-- Generator: Adobe Illustrator 19.0.0, SVG Export Plug-In . SVG Version: 6.00 Build 0)  -->
<svg version="1.1" id="Layer_1" xmlns="http://www.w3.org/2000/svg" xmlns:xlink="http://www.w3.org/1999/xlink" x="0px" y="0px"
	 viewBox="0 0 511.999 511.999" style="enable-background:new 0 0 511.999 511.999;" xml:space="preserve">
<rect x="231.872" y="11.742" style="fill:#754C24;" width="48.258" height="37.007"/>
<g>
	<path style="fill:#808080;" d="M297.066,300.044c8.758,0,15.883-7.125,15.883-15.884c0-8.759-7.125-15.884-15.883-15.884
		s-15.883,7.125-15.883,15.884C281.183,292.92,288.308,300.044,297.066,300.044z"/>
	<path style="fill:#808080;" d="M243.352,249.998c3.549,0,6.437-2.888,6.437-6.438c0-3.549-2.887-6.437-6.437-6.437
		c-3.549,0-6.437,2.888-6.437,6.437C236.915,247.111,239.802,249.998,243.352,249.998z"/>
	<path style="fill:#808080;" d="M311.5,74.564v-8.203c0-3.237-2.634-5.871-5.871-5.871h-99.26c-3.237,0-5.871,2.634-5.871,5.871
		v8.203c0,3.237,2.634,5.871,5.871,5.871h99.26C308.866,80.435,311.5,77.801,311.5,74.564z"/>
</g>
<path style="fill:#E6E6E6;" d="M295.331,201.57c-1.721-1.072-2.767-2.957-2.767-4.983V92.176h-73.124v104.41
	c0,2.028-1.046,3.911-2.767,4.983c-46.473,28.949-96.492,94.892-96.492,171.267c0,86.932,43.157,127.421,135.82,127.421
	c92.66,0,135.816-40.489,135.816-127.421C391.817,296.461,341.802,230.518,295.331,201.57z M297.066,256.535
	c15.232,0,27.624,12.393,27.624,27.626c0,15.232-12.393,27.626-27.624,27.626c-15.232,0-27.624-12.393-27.624-27.626
	C269.442,268.928,281.834,256.535,297.066,256.535z M243.352,225.382c10.024,0,18.178,8.155,18.178,18.178
	c0,10.024-8.155,18.179-18.178,18.179c-10.024,0-18.178-8.156-18.178-18.179C225.174,233.537,233.328,225.382,243.352,225.382z
	 M349.812,295.387c2.769-1.691,6.382-0.816,8.07,1.95c7.577,12.409,11.892,30.046,12.509,32.683c0.006,0.02,0.016,0.039,0.022,0.059
	c3.751,13.721,5.654,27.643,5.654,41.381c0,41.309-12.008,71.678-35.693,90.261C320.616,477.223,293.017,484.76,256,484.76
	s-64.615-7.537-84.373-23.039c-23.685-18.583-35.694-48.952-35.694-90.261c0-13.667,1.888-27.527,5.608-41.197
	c0.322-1.41,4.673-20.003,12.568-32.927c1.69-2.767,5.303-3.642,8.07-1.95c2.767,1.69,3.641,5.304,1.95,8.07
	c-4.206,6.885-7.36,16.035-9.223,22.306h24.806c2.854-19.741,19.88-34.958,40.398-34.958c20.517,0,37.541,15.217,40.397,34.956
	l96.575-0.002c-1.863-6.269-5.017-15.417-9.221-22.301C346.171,300.689,347.043,297.076,349.812,295.387z"/>
<path style="fill:#412559;" d="M147.673,371.46c0,38.047,10.206,64.551,31.201,81.024c17.61,13.818,42.838,20.535,77.125,20.535
	c34.288,0,59.516-6.717,77.126-20.535c20.994-16.473,31.2-42.977,31.2-81.024c0-11.255-1.387-22.659-4.125-33.961l-208.404,0.005
	C149.06,348.811,147.673,360.214,147.673,371.46z"/>
<path style="fill:#808080;" d="M220.109,302.544c-14.028,0-25.768,9.982-28.49,23.215l56.976-0.001
	C245.875,312.526,234.136,302.544,220.109,302.544z"/>
<path d="M297.066,311.785c15.232,0,27.624-12.393,27.624-27.626s-12.393-27.626-27.624-27.626
	c-15.232,0-27.624,12.393-27.624,27.626C269.442,299.393,281.834,311.785,297.066,311.785z M297.066,268.276
	c8.758,0,15.883,7.125,15.883,15.884c0,8.759-7.125,15.884-15.883,15.884s-15.883-7.125-15.883-15.884
	C281.183,275.401,288.308,268.276,297.066,268.276z"/>
<path d="M243.352,261.74c10.024,0,18.178-8.156,18.178-18.18c0-10.024-8.155-18.178-18.178-18.178
	c-10.024,0-18.178,8.155-18.178,18.178S233.328,261.74,243.352,261.74z M243.352,237.124c3.549,0,6.437,2.888,6.437,6.437
	c0,3.549-2.887,6.438-6.437,6.438c-3.549,0-6.437-2.888-6.437-6.438C236.915,240.012,239.802,237.124,243.352,237.124z"/>
<path d="M304.306,193.366V92.177h1.323c9.711,0,17.612-7.901,17.612-17.612v-8.203c0-9.711-7.901-17.612-17.612-17.612h-13.758
	V5.871c0-3.242-2.628-5.871-5.871-5.871h-60.003c-3.242,0-5.871,2.629-5.871,5.871v42.878h-13.758
	c-9.711,0-17.612,7.901-17.612,17.612v8.203c0,9.711,7.901,17.612,17.612,17.612h1.329v101.189
	c-48.337,31.466-99.259,100.132-99.259,179.471c0,93.643,48.267,139.162,147.561,139.162c99.292,0,147.558-45.52,147.558-139.162
	C403.559,293.496,352.639,224.831,304.306,193.366z M231.869,11.742h48.261v37.007h-48.261V11.742z M206.369,80.435
	c-3.237,0-5.871-2.634-5.871-5.871v-8.203c0-3.237,2.634-5.871,5.871-5.871h99.26c3.237,0,5.871,2.634,5.871,5.871v8.203
	c0,3.237-2.634,5.871-5.871,5.871H206.369z M256.001,500.258c-92.661,0-135.82-40.488-135.82-127.421
	c0-76.375,50.019-142.319,96.492-171.267c1.721-1.072,2.767-2.957,2.767-4.983V92.176h73.124v104.41
	c0,2.028,1.046,3.911,2.767,4.983c46.471,28.948,96.487,94.891,96.487,171.267C391.817,459.77,348.66,500.258,256.001,500.258z"/>
<path d="M357.081,325.757l-96.575,0.002c-2.856-19.739-19.88-34.956-40.397-34.956c-20.52,0-37.544,15.218-40.398,34.958h-24.806
	c1.863-6.269,5.017-15.419,9.223-22.306c1.69-2.766,0.817-6.38-1.95-8.07c-2.767-1.692-6.38-0.816-8.07,1.95
	c-7.894,12.924-12.245,31.518-12.568,32.927c-3.72,13.67-5.608,27.528-5.608,41.197c0,41.309,12.009,71.678,35.694,90.261
	c19.759,15.502,47.357,23.039,84.373,23.039s64.616-7.537,84.374-23.039c23.685-18.583,35.693-48.952,35.693-90.261
	c0-13.738-1.902-27.661-5.654-41.381c-0.006-0.021-0.016-0.039-0.022-0.059c-0.618-2.637-4.933-20.275-12.509-32.683
	c-1.688-2.766-5.301-3.642-8.07-1.95c-2.767,1.69-3.641,5.303-1.951,8.07C352.064,310.341,355.218,319.489,357.081,325.757z
	 M220.109,302.544c14.027,0,25.765,9.982,28.487,23.214l-56.976,0.001C194.343,312.527,206.082,302.544,220.109,302.544z
	 M360.201,337.499c2.738,11.302,4.125,22.706,4.125,33.961c0,38.047-10.206,64.551-31.2,81.024
	c-17.61,13.818-42.838,20.535-77.126,20.535c-34.287,0-59.515-6.717-77.125-20.535c-20.995-16.473-31.201-42.977-31.201-81.024
	c0-11.247,1.387-22.65,4.125-33.957L360.201,337.499z"/>
<g>
</g>
<g>
</g>
<g>
</g>
<g>
</g>
<g>
</g>
<g>
</g>
<g>
</g>
<g>
</g>
<g>
</g>
<g>
</g>
<g>
</g>
<g>
</g>
<g>
</g>
<g>
</g>
<g>
</g>
</svg>
