<?xml version="1.0" encoding="iso-8859-1"?>
<!-- Generator: Adobe Illustrator 18.0.0, SVG Export Plug-In . SVG Version: 6.00 Build 0)  -->
<!DOCTYPE svg PUBLIC "-//W3C//DTD SVG 1.1//EN" "http://www.w3.org/Graphics/SVG/1.1/DTD/svg11.dtd">
<svg version="1.1" id="Capa_1" xmlns="http://www.w3.org/2000/svg" xmlns:xlink="http://www.w3.org/1999/xlink" x="0px" y="0px"
	 viewBox="0 0 481.357 481.357" style="enable-background:new 0 0 481.357 481.357;" xml:space="preserve">
<g id="XMLID_29_">
	<polygon id="XMLID_45_" points="127.455,250.176 155.37,270.262 161.835,249.999 	"/>
	<polygon id="XMLID_44_" points="203.102,194.642 192.649,227.354 213.901,227.271 	"/>
	<polygon id="XMLID_43_" points="244.939,249.593 251.602,269.775 279.338,249.4 	"/>
	<polygon id="XMLID_42_" points="167.363,306.54 156.922,339.3 184.622,318.953 	"/>
	<path id="XMLID_41_" d="M222.829,318.744c7.266,5.218,1.232,0.892,27.966,20.085l-10.812-32.667L222.829,318.744z"/>
	<path id="XMLID_40_" d="M259.025,292.174l15.787,47.803c16.894-17.957,27.313-42.061,27.313-68.596
		c0-3.535-0.19-7.018-0.545-10.457L259.025,292.174z"/>
	<path id="XMLID_39_" d="M161.981,363.465c12.202,5.301,25.656,8.27,39.793,8.27c15.318,0,29.774-3.551,42.775-9.714l-40.73-29.257
		L161.981,363.465z"/>
	<path id="XMLID_38_" d="M291.592,226.867c-13.911-27.944-40.395-48.497-72.068-54.171l18.01,54.429L291.592,226.867z"/>
	<path id="XMLID_37_" d="M101.419,271.381c0,28.234,11.771,53.75,30.604,72.001l16.165-50.638l-46.018-33.083
		C101.711,263.502,101.419,267.408,101.419,271.381z"/>
	<path id="XMLID_36_" d="M186.653,172.291c-33.168,5.057-60.982,26.324-75.131,55.5l57.508-0.291L186.653,172.291z"/>
	<polygon id="XMLID_35_" points="174.545,284.023 203.672,304.965 232.569,283.732 221.324,249.708 185.487,249.884 	"/>
	<path id="XMLID_30_" d="M414.962,0H132.785c-4.411,0-8.623,1.752-11.733,4.863L54.657,71.258c-3.18,3.175-4.701,7.42-4.715,11.733
		h-0.146v381.767c0,9.177,7.427,16.6,16.594,16.6h282.178c4.311,0,8.561-1.685,11.734-4.864l66.395-66.394
		c3.116-3.113,4.866-7.326,4.866-11.732V16.6C431.562,7.426,424.139,0,414.962,0z M139.657,33.195H374.89l-33.194,33.199H106.463
		L139.657,33.195z M320.463,247.047l-3.815,2.807c1.315,6.986,2.077,14.166,2.077,21.527c0,34.09-14.747,64.721-38.107,86.119
		l2.336,7.086c1.502,4.635-0.103,9.709-4.038,12.575c-3.908,2.869-9.259,2.905-13.18,0.084l-6.098-4.378
		c-17.081,9.791-36.812,15.465-57.866,15.465c-19.843,0-38.529-5.01-54.934-13.762l-4.504,3.308
		c-1.979,1.442-4.298,2.152-6.614,2.152c-2.32,0-4.605-0.696-6.579-2.122c-3.961-2.836-5.61-7.895-4.149-12.514l1.49-4.667
		c-25.433-21.46-41.657-53.541-41.657-89.347c0-7.734,0.792-15.271,2.233-22.598l-0.775-0.551c-3.959-2.838-5.61-7.91-4.148-12.515
		c1.472-4.635,5.787-7.812,10.646-7.826h0.522c16.154-40.168,53.942-69.298,98.89-72.98l0.018-0.064
		c1.492-4.604,5.788-7.777,10.682-7.795c0,0,0.017,0,0.031,0c4.847,0,9.145,3.095,10.666,7.713l0.082,0.26
		c43.537,4.428,80.057,32.846,96.169,71.76l3.94-0.014c0.02,0,0.032,0,0.064,0c4.835,0,9.144,3.109,10.654,7.699
		C326.023,239.107,324.417,244.18,320.463,247.047z M398.364,391.49l-33.195,33.197V89.865l33.195-33.195V391.49z"/>
</g>
<g>
</g>
<g>
</g>
<g>
</g>
<g>
</g>
<g>
</g>
<g>
</g>
<g>
</g>
<g>
</g>
<g>
</g>
<g>
</g>
<g>
</g>
<g>
</g>
<g>
</g>
<g>
</g>
<g>
</g>
</svg>
