<?xml version="1.0" encoding="iso-8859-1"?>
<!-- Generator: Adobe Illustrator 18.0.0, SVG Export Plug-In . SVG Version: 6.00 Build 0)  -->
<!DOCTYPE svg PUBLIC "-//W3C//DTD SVG 1.1//EN" "http://www.w3.org/Graphics/SVG/1.1/DTD/svg11.dtd">
<svg version="1.1" id="Capa_1" xmlns="http://www.w3.org/2000/svg" xmlns:xlink="http://www.w3.org/1999/xlink" x="0px" y="0px"
	 viewBox="0 0 62.264 62.264" style="enable-background:new 0 0 62.264 62.264;" xml:space="preserve">
<g>
	<path style="fill:#1D1D1B;" d="M22.168,6.633c-0.127,0-0.127,0.197,0,0.197C22.295,6.829,22.295,6.633,22.168,6.633z"/>
	<path style="fill:#1D1D1B;" d="M48.726,39.048c-2.863-6.878-9.003-11.767-16.242-12.963c2.976-2.137,5.683-4.954,8.381-7.296
		c1.891-1.641,4.381-3.424,4.476-5.998c0.426-0.176,0.748-0.545,0.684-1.078c-0.244-2.045-0.488-4.085-0.602-6.143
		c-0.073-1.314,0.256-2.939-0.684-3.932c0.224-0.705-0.185-1.695-1.076-1.635c-8.33,0.554-16.659,1.053-24.99,1.571
		c-0.07,0.004-0.124,0.03-0.185,0.046c-0.592-0.176-1.26,0.036-1.379,0.809c-0.423,2.728-0.703,5.532-0.506,8.293
		c0.014,0.198,0.104,0.365,0.229,0.498c-0.51,0.718-0.246,1.921,0.855,1.815c4.652-0.45,9.199-0.304,13.741,0.585
		c-3.571,2.798-7.499,4.626-11.928,5.987c-0.305,0.094-0.452,0.376-0.465,0.658c-0.194,0.138-0.342,0.354-0.395,0.673
		c-0.52,3.13-0.369,6.383,0.945,9.309c0.039,0.086,0.093,0.155,0.157,0.21c-0.688,0.533-0.403,1.862,0.624,1.844
		c4.873-0.085,9.469,1.32,11.87,5.989c1.499,2.915,1.633,10.271-3.929,9.155c-3.932-0.789-3.876-6.098-3.305-8.999
		c0.101-0.51-0.255-0.837-0.639-0.88c-0.112-0.167-0.268-0.3-0.47-0.343c-1.715-0.37-3.516,0.104-5.24,0.325
		c-1.634,0.209-3.263,0.433-4.891,0.683c-0.461-0.068-0.944,0.131-1.104,0.739C8,56.579,30.061,68.338,44.093,58.942
		C50.607,54.58,51.575,45.893,48.726,39.048z M18.275,10.657c0.395-2.467,0.7-4.945,1.124-7.409
		c7.944,0.535,16.117,0.202,24.003-0.866c-0.381,0.943-0.231,2.145-0.232,3.188c0,0.144,0.008,0.287,0.009,0.43
		c-6.337-0.423-12.934-0.13-19.259,0.338c-0.202,0.015-0.208,0.318,0,0.319c6.389,0.01,12.888,0.122,19.269-0.195
		c0.019,0.934,0.057,1.866,0.132,2.796c-5.556-0.656-11.227-0.883-16.81-0.7c-0.169,0.005-0.225,0.281-0.042,0.31
		c0.393,0.061,0.786,0.122,1.18,0.184c0.082,0.013,0.117-0.1,0.035-0.127c2.126,0.68,5.446,0.142,7.663,0.264
		c2.678,0.148,5.348,0.393,8.022,0.6c0.069,0.751,0.15,1.5,0.257,2.248c0.024,0.168,0.082,0.31,0.164,0.427
		c-0.464,1.173-1.686,1.929-2.65,2.705c-0.421,0.339-0.833,0.692-1.247,1.041c-2.814,0.125-5.414,0.429-8.205,0.119
		c1.101-0.764,2.153-1.604,3.147-2.514c0.648-0.593,0.317-1.755-0.518-1.962C29.035,10.545,23.68,10.078,18.275,10.657z
		 M46.524,51.748c-4.89-0.685-9.938-0.61-14.855-0.376c-0.162,0.008-0.164,0.257,0,0.253c4.925-0.107,9.769,0.281,14.673,0.552
		c-0.312,0.671-0.685,1.316-1.13,1.922c-1.309,0.294-4.046-0.431-5.262-0.538c-1.749-0.154-3.5-0.293-5.252-0.417
		c-4.088-0.289-8.18-0.499-12.278-0.596c-0.188-0.004-0.186,0.281,0,0.291c4.68,0.253,9.359,0.518,14.029,0.917
		c1.84,0.157,6.115,1.346,8.3,0.929c-0.462,0.548-0.973,1.067-1.562,1.536c-6.492-0.65-13.009-1.19-19.518-1.621
		c-0.153-0.01-0.147,0.218,0,0.234c6.292,0.708,12.608,1.312,18.922,1.815c-0.152,0.106-0.29,0.222-0.45,0.323
		c-0.791,0.499-1.602,0.924-2.427,1.282c-5.04-0.171-10.006-0.406-15.014-1.131c-0.17-0.025-0.246,0.233-0.072,0.262
		c4.586,0.756,9.259,1.307,13.918,1.327c-11.987,4.218-26.181-5.368-23.865-18.926c1.581-0.069,3.16-0.159,4.74-0.259
		c1.319-0.083,2.619-0.064,3.868-0.401c-0.978,3.734-0.663,8.156,3.275,10.075c2.074,1.011,4.254,0.63,5.939-0.569
		c4.946-0.002,9.875,0.203,14.817,0.325C47.156,49.918,46.897,50.856,46.524,51.748z M47.4,48.441
		c-4.814-0.324-9.678-0.273-14.5-0.114c0.939-0.779,1.693-1.821,2.132-3.023c2.94-8.057-6.163-16.563-14.038-15.215
		c0.018-0.071,0.029-0.146,0.018-0.229c-0.375-2.816-0.586-5.474-0.095-8.294c0.053-0.303-0.003-0.568-0.122-0.789
		c3.73-0.577,7.223-2.029,10.345-4.093c2.589,0.431,5.475,0.683,8.071,0.095c-0.743,0.635-1.483,1.274-2.225,1.909
		c-3.113,0.195-6.173,0.454-9.314,0.375c-0.177-0.005-0.172,0.257,0,0.272c2.785,0.238,5.728,0.326,8.549-0.011
		c-0.822,0.682-1.669,1.364-2.518,2.063c-3.511,0.054-7.015,0.247-10.532,0.2c-0.157-0.002-0.156,0.237,0,0.244
		c3.279,0.145,6.623,0.265,9.919,0.078c-0.893,0.751-1.77,1.518-2.568,2.335c-2.951-0.015-5.905,0.083-8.858-0.006
		c-0.161-0.005-0.159,0.238,0,0.248c2.751,0.173,5.568,0.35,8.35,0.284c-0.295,0.323-0.578,0.653-0.844,0.991
		c-0.396,0.503-0.289,1.158,0.078,1.522c-2.529,0.005-5.052,0.024-7.584-0.069c-0.179-0.007-0.176,0.263,0,0.277
		c2.958,0.222,5.968,0.339,8.935,0.169c1.96,0.391,3.839,1.021,5.591,1.879c-2.762-0.052-5.509,0.069-8.275-0.106
		c-0.155-0.01-0.151,0.225,0,0.239c2.794,0.264,5.705,0.505,8.505,0.211c0.092-0.01,0.139-0.076,0.153-0.146
		c0.894,0.46,1.758,0.972,2.577,1.549c-2.639-0.176-5.338,0.007-7.979,0.04c-0.202,0.003-0.202,0.312,0,0.314
		c2.731,0.034,5.526,0.237,8.25,0.028c0.064-0.005,0.108-0.034,0.137-0.072c0.69,0.511,1.357,1.054,1.982,1.649
		c-2.703-0.053-5.422,0.061-8.12,0.1c-0.178,0.003-0.178,0.274,0,0.277c2.855,0.042,5.734,0.168,8.592,0.089
		c0.632,0.641,1.24,1.311,1.789,2.04c-2.86-0.153-5.777,0.028-8.631,0.07c-0.208,0.003-0.208,0.32,0,0.323
		c2.956,0.043,5.981,0.242,8.938,0.056c0.359,0.505,0.713,1.014,1.03,1.558c0.44,0.756,0.816,1.555,1.14,2.377
		c-3.377,0.162-6.718,0.487-10.107,0.466c-0.166-0.001-0.166,0.253,0,0.258c3.392,0.104,6.884,0.153,10.248-0.357
		c0.31,0.841,0.563,1.705,0.745,2.581c-3.132-0.098-6.375,0.088-9.497,0.359c-0.187,0.016-0.193,0.29,0,0.295
		c3.134,0.08,6.384,0.067,9.506-0.223c0.031-0.003,0.046-0.024,0.071-0.035c0.141,0.768,0.235,1.542,0.268,2.314
		c-3.948,0.042-7.901,0.307-11.842,0.543c-0.164,0.01-0.167,0.262,0,0.258c3.945-0.09,7.906-0.154,11.844-0.438
		C47.527,46.923,47.5,47.689,47.4,48.441z"/>
	<path style="fill:#1D1D1B;" d="M44.925,37.927c-3.255,0.016-6.499,0.198-9.756,0.134c-0.188-0.004-0.186,0.282,0,0.291
		c3.239,0.153,6.526,0.261,9.756-0.087C45.136,38.242,45.147,37.926,44.925,37.927z"/>
	<path style="fill:#1D1D1B;" d="M42.421,13.629c-2.47-0.021-5.104,0.583-7.54,0.965c-0.152,0.024-0.118,0.288,0.037,0.272
		c2.454-0.256,5.155-0.349,7.535-1.002C42.583,13.828,42.556,13.63,42.421,13.629z"/>
	<path style="fill:#1D1D1B;" d="M42.922,10.816c-2.957,0.102-5.79,0.266-8.75-0.005c-0.161-0.015-0.201,0.261-0.039,0.285
		c2.859,0.431,5.983,0.625,8.84,0.097C43.186,11.154,43.136,10.808,42.922,10.816z"/>
</g>
<g>
</g>
<g>
</g>
<g>
</g>
<g>
</g>
<g>
</g>
<g>
</g>
<g>
</g>
<g>
</g>
<g>
</g>
<g>
</g>
<g>
</g>
<g>
</g>
<g>
</g>
<g>
</g>
<g>
</g>
</svg>
