<?xml version="1.0" encoding="iso-8859-1"?>
<!-- Generator: Adobe Illustrator 18.0.0, SVG Export Plug-In . SVG Version: 6.00 Build 0)  -->
<!DOCTYPE svg PUBLIC "-//W3C//DTD SVG 1.1//EN" "http://www.w3.org/Graphics/SVG/1.1/DTD/svg11.dtd">
<svg version="1.1" id="Capa_1" xmlns="http://www.w3.org/2000/svg" xmlns:xlink="http://www.w3.org/1999/xlink" x="0px" y="0px"
	 viewBox="0 0 62.794 62.794" style="enable-background:new 0 0 62.794 62.794;" xml:space="preserve">
<g>
	<path style="fill:#1D1D1B;" d="M42.411,1.613c-0.029-0.494-0.395-0.736-0.76-0.731c-0.014-0.473-0.321-0.911-0.952-0.88
		c-4.06,0.201-8.191,0.568-12.215,1.153c-0.185,0.027-0.31,0.118-0.402,0.232c-0.146,0.095-0.269,0.241-0.325,0.47
		c-2.313,9.355-4.817,18.545-7.883,27.687c-0.11,0.327,0.045,0.554,0.274,0.659c0.039,0.13,0.128,0.249,0.287,0.331
		c1.844,0.953,3.841,1.673,5.743,2.507c0.664,0.291,1.198-0.058,1.398-0.533c0.072-0.067,0.135-0.148,0.179-0.254
		c0.837-2.016,1.623-4.049,2.403-6.087c0.059-0.155,0.124-0.312,0.188-0.469c-0.847,11.761-0.525,23.682,0.248,35.41
		c0.076,1.148,1.469,1.4,2.048,0.747c0.399,0.164,0.559,0.532,0.96,0.698c0.543,0.225,1.41,0.125,1.991,0.15
		c1.533,0.067,3.083,0.139,4.615,0.054c0.755-0.042,1.118-0.621,1.099-1.186c0.427-0.085,0.805-0.395,0.819-0.961
		C42.61,41.078,43.559,21.12,42.411,1.613z M32.127,21.457c2.635-0.161,5.268-0.354,7.897-0.581
		c-0.02,0.997-0.044,1.994-0.059,2.992c-2.166-0.002-4.37,0.207-6.507,0.291c-0.279,0.011-0.282,0.441,0,0.436
		c2.134-0.039,4.339,0.039,6.497-0.085c-0.01,0.765-0.027,1.528-0.034,2.293c-2.064-0.02-4.15,0.117-6.213,0.097
		c-0.243-0.002-0.239,0.361,0,0.375c2.018,0.118,4.159,0.224,6.206,0.047c-0.005,0.538-0.016,1.076-0.019,1.615
		c-2.146,0.109-4.274,0.269-6.438,0.196c-0.278-0.009-0.276,0.418,0,0.431c2.114,0.099,4.306,0.147,6.433-0.089
		c-0.004,0.802-0.017,1.603-0.019,2.405c-1.887,0.187-3.733,0.351-5.662,0.217c-0.299-0.021-0.295,0.438,0,0.464
		c1.847,0.16,3.8,0.208,5.662-0.092c-0.001,0.901-0.004,1.802-0.002,2.702c-1.956,0.409-3.865,0.56-5.857,0.243
		c-0.284-0.045-0.411,0.384-0.121,0.439c1.991,0.372,4.026,0.373,5.978-0.169c0.001,0.673,0.001,1.346,0.004,2.019
		c-2.497,0.191-4.971,0.471-7.482,0.516C32.325,32.632,32.258,27.046,32.127,21.457z M32.397,38.516
		c2.483,0.027,5.022-0.021,7.479-0.431c0.003,0.743,0.005,1.486,0.009,2.229c-1.497,0.147-3.003,0.431-4.475,0.641
		c-0.212,0.03-0.165,0.401,0.051,0.377c1.457-0.155,2.962-0.247,4.428-0.465c0.006,0.841,0.01,1.682,0.016,2.522
		c-2.483,0.238-4.933,0.486-7.44,0.552C32.439,42.133,32.419,40.325,32.397,38.516z M32.47,44.289
		c2.434,0.162,5.014,0.117,7.44-0.322c0.005,0.634,0.009,1.268,0.015,1.901c-1.451-0.012-2.934,0.312-4.289,0.748
		c-0.183,0.059-0.107,0.343,0.08,0.289c1.415-0.405,2.79-0.508,4.213-0.565c0.007,0.766,0.013,1.534,0.021,2.3
		c-1.35,0.169-2.697,0.398-4.038,0.586c-0.228,0.032-0.176,0.435,0.055,0.405c1.323-0.17,2.662-0.305,3.989-0.493
		c0.008,0.78,0.015,1.562,0.022,2.341c-2.45,0.286-4.883,0.567-7.36,0.677C32.555,49.533,32.509,46.911,32.47,44.289z
		 M35.592,60.516c-0.58,0.025-1.447-0.074-1.991,0.15c-0.309,0.128-0.478,0.374-0.721,0.556c0.002-0.042,0.02-0.072,0.018-0.116
		c-0.118-2.863-0.203-5.725-0.272-8.587c2.432,0.012,4.936-0.098,7.355-0.497c0.005,0.483,0.009,0.967,0.014,1.45
		c-1.67,0.256-3.301,0.507-5.038,0.438c-0.242-0.01-0.24,0.361,0,0.375c1.608,0.093,3.397,0.096,5.044-0.249
		c0.007,0.735,0.015,1.473,0.021,2.208c-1.838,0.357-3.639,0.63-5.571,0.553c-0.188-0.007-0.185,0.277,0,0.291
		c1.801,0.13,3.756,0.103,5.576-0.3c0.01,1.223,0.022,2.45,0.03,3.67C38.573,60.385,37.074,60.451,35.592,60.516z M30.453,6.496
		c3.407-0.389,6.743-0.385,10.156-0.386c-0.028,0.493-0.067,0.984-0.093,1.478c-2.515-0.058-5.051,0.047-7.56,0.064
		c-0.265,0.002-0.266,0.411,0,0.412c2.5,0.017,5.025,0.121,7.531,0.065C40.46,8.695,40.426,9.259,40.4,9.824
		c-2.729,0.06-5.465,0.298-8.192,0.378c-0.217,0.006-0.218,0.338,0,0.337c2.706-0.003,5.466,0.027,8.172-0.219
		c-0.077,1.693-0.153,3.387-0.207,5.084c-2.847,0.254-5.595,0.606-8.466,0.505c-0.252-0.009-0.248,0.372,0,0.389
		c2.778,0.192,5.727,0.213,8.452-0.446c-0.027,0.876-0.056,1.752-0.077,2.629c-2.864-0.021-5.78,0.229-8.625,0.425
		c-0.259,0.018-0.265,0.413,0,0.408c2.846-0.056,5.767-0.067,8.612-0.339c-0.011,0.468-0.026,0.936-0.036,1.404
		c-2.638,0.223-5.276,0.433-7.915,0.632c-0.003-0.138-0.005-0.275-0.008-0.413c-0.012-0.48-0.389-0.674-0.738-0.618
		c-0.226-0.093-0.489-0.073-0.674,0.147c-0.272,0.322-0.496,0.672-0.695,1.037c-1.348,0.097-2.696,0.202-4.045,0.292
		c-0.215,0.014-0.219,0.347,0,0.337c1.278-0.055,2.556-0.139,3.834-0.208c-0.547,1.164-0.85,2.466-1.244,3.688
		c-0.63,1.952-1.251,3.904-1.837,5.869c-1.829-0.556-3.658-1.213-5.514-1.664c3.547-8.603,6.378-17.646,8.085-26.8
		c3.795-0.044,7.648-0.295,11.417-0.678c0.065-0.007,0.113-0.036,0.171-0.052c-0.045,0.585-0.075,1.173-0.11,1.761
		c-2.835-0.073-5.724,0.154-8.552,0.286c-0.21,0.01-0.212,0.329,0,0.328c2.82-0.018,5.707,0.053,8.524-0.167
		c-0.029,0.487-0.063,0.972-0.091,1.459c-3.384-0.286-6.89,0.032-10.232,0.556C30.226,6.198,30.266,6.518,30.453,6.496z"/>
	<path style="fill:#1D1D1B;" d="M39.214,58.776c-1.771,0.053-3.553,0.393-5.304,0.65c-0.181,0.027-0.14,0.342,0.044,0.322
		c1.761-0.191,3.567-0.308,5.297-0.7C39.403,59.013,39.37,58.771,39.214,58.776z"/>
	<path style="fill:#1D1D1B;" d="M39.458,12.915c-3.559-0.141-7.191,0.124-10.75,0.269c-0.261,0.011-0.264,0.409,0,0.408
		c3.562-0.019,7.201,0.077,10.75-0.226C39.743,13.341,39.751,12.927,39.458,12.915z"/>
</g>
<g>
</g>
<g>
</g>
<g>
</g>
<g>
</g>
<g>
</g>
<g>
</g>
<g>
</g>
<g>
</g>
<g>
</g>
<g>
</g>
<g>
</g>
<g>
</g>
<g>
</g>
<g>
</g>
<g>
</g>
</svg>
