<?xml version="1.0"?>
<svg xmlns="http://www.w3.org/2000/svg" xmlns:xlink="http://www.w3.org/1999/xlink" version="1.1" id="Capa_1" x="0px" y="0px" viewBox="0 0 512 512" style="enable-background:new 0 0 512 512;" xml:space="preserve" width="512px" height="512px" class=""><g><g>
	<g>
		<path d="M390,211v-15c0-8.291-6.709-15-15-15h-23.789l-25.605-25.605C322.793,152.582,318.984,151,315,151h-15v-30h15    c8.291,0,15-6.709,15-15s-6.709-15-15-15c-32.783,0-117.635,0-150,0c-8.291,0-15,6.709-15,15s6.709,15,15,15h15v30h-15    c-3.984,0-7.793,1.582-10.605,4.395l-30,30C121.582,188.207,120,192.016,120,196v150c0,3.984,1.582,7.793,4.395,10.605l60,60    C187.207,419.418,191.016,421,195,421h150c5.684,0,10.869-3.208,13.418-8.291l30-60c1.04-2.08,1.582-4.38,1.582-6.709h32V211H390z     M298.418,292.709l-30,60c-3.686,7.351-12.64,10.427-20.127,6.709c-7.412-3.706-10.415-12.715-6.709-20.127L260.728,301H225    c-11.106,0-18.418-11.741-13.418-21.709l30-60c3.706-7.397,12.715-10.4,20.127-6.709c7.412,3.706,10.415,12.715,6.709,20.127    L249.272,271H285C296.106,271,303.418,282.741,298.418,292.709z" data-original="#000000" class="active-path" data-old_color="#F6F5F5" fill="#FCFBFB"/>
	</g>
</g><g>
	<g>
		<path d="M75,181c-8.291,0-15,6.709-15,15v60H30v-60c0-8.291-6.709-15-15-15s-15,6.709-15,15v150c0,8.291,6.709,15,15,15    s15-6.709,15-15v-60h30v60c0,8.291,6.709,15,15,15h15V181H75z" data-original="#000000" class="active-path" data-old_color="#F6F5F5" fill="#FCFBFB"/>
	</g>
</g><g>
	<g>
		<path d="M482,181h-15c-8.284,0-15,6.716-15,15v180c0,8.284,6.716,15,15,15h15c16.569,0,30-13.431,30-30V211    C512,194.431,498.569,181,482,181z" data-original="#000000" class="active-path" data-old_color="#F6F5F5" fill="#FCFBFB"/>
	</g>
</g></g> </svg>
