<svg xmlns="http://www.w3.org/2000/svg" viewBox="159 360 512 304.819">
  <defs>
    <style>
      .cls-1 {
        fill: #e5e5e5;
      }
    </style>
  </defs>
  <g id="pulse" transform="translate(159 256.41)">
    <g id="Group_5" data-name="Group 5">
      <g id="Group_4" data-name="Group 4">
        <path id="Path_1" data-name="Path 1" class="cls-1" d="M494.14,238.141H422.09a17.853,17.853,0,0,0-15.539,9.055L349.8,347.393l-80.515-231.8a17.859,17.859,0,0,0-33.227-1.309L155.4,298.289,87.55,231.378a17.861,17.861,0,0,0-12.538-5.144H17.86a17.86,17.86,0,1,0,0,35.72H67.691l81.11,79.985a17.855,17.855,0,0,0,28.9-5.543l72.8-166.061,78.527,226.072a17.863,17.863,0,0,0,15.259,11.925c.542.054,1.078.077,1.619.077a17.866,17.866,0,0,0,15.533-9.055L432.515,273.86H494.14a17.859,17.859,0,1,0,0-35.719Z"/>
      </g>
    </g>
  </g>
</svg>
