<?xml version="1.0"?>
<svg xmlns="http://www.w3.org/2000/svg" xmlns:xlink="http://www.w3.org/1999/xlink" version="1.1" id="Capa_1" x="0px" y="0px" viewBox="0 0 512 512" style="enable-background:new 0 0 512 512;" xml:space="preserve" width="512px" height="512px"><g><g>
	<g>
		<path d="M494.14,238.141H422.09c-6.436,0-12.371,3.459-15.539,9.055l-56.749,100.197l-80.515-231.805    c-2.405-6.936-8.823-11.699-16.164-11.984c-7.323-0.292-14.11,3.947-17.063,10.675l-80.664,184.01l-67.846-66.911    c-3.34-3.292-7.841-5.144-12.538-5.144H17.86c-9.865,0-17.86,8.002-17.86,17.86s7.996,17.86,17.86,17.86h49.831l81.11,79.985    c4.185,4.132,10.139,5.942,15.908,4.828c5.775-1.107,10.633-4.989,12.99-10.371l72.799-166.061l78.527,226.072    c2.304,6.626,8.275,11.294,15.259,11.925c0.542,0.054,1.078,0.077,1.619,0.077c6.388,0,12.342-3.429,15.533-9.055l71.079-125.494    h61.625c9.865,0,17.86-7.995,17.86-17.86C512,246.136,504.004,238.141,494.14,238.141z" data-original="#000000" class="active-path" data-old_color="#6e63e8" fill="#6e63e8"/>
	</g>
</g></g> </svg>
